<svg xmlns="http://www.w3.org/2000/svg" viewBox="0 0 388 392" class="svg-icon">
    <path fill="currentColor" fill-rule="evenodd"
        d="M0 191.5V383h227v-80H80V0H0zm12.038-3.75.038 175.75 28.446-29 28.445-29-.233-7.5-.234-7.5-11.75-.282-11.75-.281v-10.874l11.75-.281 11.75-.282.3-5.75.3-5.75H57v-10.9l5.75-.3 5.75-.3.3-5.75.3-5.75H45v-12h24v-11H57v-12h12.1l-.3-5.75-.3-5.75-11.75-.282-11.75-.281V186h24v-10H57v-12h12v-10H45v-10.937l11.75-.281 11.75-.282.298-6.25.297-6.25H57v-12h12v-13H45V93h24.1l-.3-5.75-.3-5.75-5.75-.3-5.75-.3V70h12V12H12zm104.011-69 .049 106.75 74.469-75c40.958-41.25 88.465-89.288 105.572-106.75L327.241 12H116zM33.421 23.896c-10.403 4.725-13.143 17.338-5.691 26.195 7.445 8.848 21.517 7.256 26.967-3.051 7.607-14.385-6.58-29.818-21.276-23.144M128 28v5h8v12h-8v10h16v11h-16v11h8v11h-8v9.916l7.75.292 7.75.292.3 5.75.3 5.75H128v10h8v12h-8v10h16v11h-16v11h8v11h-8v21.852l53.226-53.676c29.274-29.522 67.749-68.31 85.5-86.196S299 24.132 299 23.73c0-.401-38.475-.73-85.5-.73H128zm-91.965 7.934C33.679 40.336 35.48 44 40 44c1.43 0 3.14-.54 3.8-1.2S45 40.43 45 39c0-4.919-6.739-7.224-8.965-3.066M152 93.5c0 24.475.125 44.5.279 44.5.153 0 19.989-20.025 44.081-44.5L240.163 49H152zm180.5-37.989c-3.3 3.568-45.57 46.339-93.933 95.047l-87.934 88.56 23.926 23.941C187.718 276.227 198.732 287 199.034 287c.807 0 187.399-188.906 187.839-190.168.417-1.197-45.78-47.839-47.365-47.82-.554.006-3.708 2.931-7.008 6.499M164 85.242v24.242L188 85.5c13.2-13.191 24-24.1 24-24.242S201.2 61 188 61h-24zM335.724 68.77c-4.818 4.935-4.963 4.439 3.903 13.358l7.628 7.672-3.295 4.1c-1.812 2.255-3.548 4.1-3.856 4.1-.309 0-4.278-3.697-8.82-8.215l-8.259-8.216-4.017 3.923-4.017 3.923 4.226 4.306 4.226 4.306-4.208 4.208-4.208 4.208-4.306-4.226-4.306-4.226-3.923 4.017-3.923 4.017 8.447 8.491 8.447 8.491-4.282 4.247-4.282 4.246-8.081-8.354-8.08-8.354-4.088 4.088-4.088 4.087 3.922 4.017 3.922 4.016-3.911 4.005-3.91 4.004L278.5 135l-4.085-4.009-3.923 4.017-3.923 4.017 8.213 8.255 8.212 8.256-4.229 4.229-4.229 4.229-8.252-8.209-8.252-8.209-3.524 3.416-3.524 3.416 4.214 4.293 4.213 4.294-3.913 4.007-3.913 4.007-4.286-4.207-4.287-4.206-3.457 3.351-3.457 3.35 7.912 8.457 7.913 8.457-3.682 4.405-3.681 4.404-8.564-8.524-8.563-8.524-3.922 4.017-3.922 4.016 4.21 4.29 4.21 4.29-4.004 3.91-4.005 3.911-3.792-3.703c-4.658-4.548-4.99-4.555-9.224-.187l-3.408 3.516 8.34 8.384 8.34 8.383-3.295 4.1c-1.813 2.256-3.549 4.101-3.857 4.101s-4.285-3.704-8.836-8.231l-8.273-8.23-3.718 3.718-3.718 3.718 4.225 4.305 4.225 4.305-3.797 3.708c-4.673 4.563-4.751 4.563-9.439-.014l-3.81-3.722-6.151 6.151-6.15 6.15 15.302 16.071C191.38 263.768 198.367 271 198.49 271c.124 0 39.069-39.181 86.544-87.069l86.319-87.07-15.952-15.952-15.952-15.953zM80 320v6h135v-12H80zm-35.5 27.185-24 24.315 23.431.269c12.887.148 23.808-.108 24.269-.569s.716-11.523.569-24.583L68.5 322.87zm35.7-4.435.3 5.75h134l.3-5.75.3-5.75H79.9zM80 366v6h135v-12H80z" />
</svg>