<svg xmlns="http://www.w3.org/2000/svg" viewBox="0 0 392 392" class="svg-icon">
    <path fill="currentColor" fill-rule="evenodd"
        d="M214 16.5V28h13V5h-13zm-46.405 12.855c-3.715 3.233-4.685 4.638-4 5.792 2.586 4.351 14.048 16.586 15.001 16.012.603-.362 3.026-2.33 5.386-4.372l4.29-3.712-6.32-7.288c-3.477-4.008-7.026-8.055-7.887-8.994-1.461-1.593-1.892-1.422-6.47 2.562m93.905 4.311c-8.703 10.451-8.491 9.318-2.658 14.201l4.923 4.122 5.804-6.744c3.191-3.71 6.699-7.759 7.794-8.998l1.991-2.252-4.331-3.748c-2.382-2.061-4.824-4.026-5.427-4.367-.605-.343-4.231 3.145-8.096 7.786m-53.629 19.34c-8.991 4.751-10.095 7.563-13.401 34.144l-2.655 21.35-6.484 16.5c-10.383 26.42-12.895 29.411-35.331 42.062-7.975 4.497-14.714 8.374-14.976 8.616-.747.691 5.102 11.322 6.229 11.322.554 0 8.231-4.131 17.06-9.179 24.686-14.116 27.61-17.665 39.547-47.993l6.821-17.328 2.754-22c3.439-27.473 2.828-26.5 16.629-26.5 14.195 0 13.183-1.6 18.025 28.5 4.804 29.862 4.956 27.076-3.563 65.226-3.589 16.074-6.526 29.462-6.526 29.75s24.097.524 53.55.524c66.441 0 61.45-1.503 61.45 18.5 0 18.835.625 18.5-34.468 18.5H287v13h27.134c29.436 0 32.49-.417 38.339-5.238 6.107-5.035 7.811-9.665 8.332-22.639.766-19.094-2.752-27.862-13.115-32.687l-5.19-2.416-46.75-.01c-31.525-.007-46.75-.347-46.75-1.044 0-.569 2.066-10.132 4.591-21.25 6.385-28.114 6.545-33.225 1.949-62.216-4.86-30.662-5.783-33.033-14.626-37.544-5.554-2.833-27.65-2.8-33.043.05M150 81.5V88h24V75h-24zm122 0V88h24V75h-24zM32.204 176.75l.296 6.75 33.755.263 33.755.264-.255 92.736L99.5 369.5l-26.75.266-26.75.267V205H32v178h81v-6.5c0-5.343.29-6.5 1.631-6.5.897 0 20.027 4.064 42.511 9.031l40.879 9.032 57.24-.282c56.47-.277 57.293-.31 61.239-2.439 9.199-4.964 12.5-11.252 12.5-23.81V353h-13v7.577c0 7.041-.207 7.784-2.923 10.5L310.154 374l-57.327-.049-57.327-.049-41-9.201-41-9.201-.255-92.75-.255-92.75H31.909zM337 259.55c0 14.426-2.186 15.45-32.968 15.45H281v13h24.634c28.572 0 30.845-.424 37.394-6.972 5.421-5.421 6.972-9.959 6.972-20.394V253h-13zm-12 50c0 13.806-1.267 14.45-28.434 14.45H275v14l22.25-.01c21.276-.009 22.472-.113 27.321-2.371 9.541-4.443 13.429-11.676 13.429-24.985V303h-13zM66 336v11h13v-22H66z" />
</svg>