<svg xmlns="http://www.w3.org/2000/svg" width="70" height="70" fill="currentColor" viewBox="0 0 70 70" class="svg-icon">
    <path
        d="M35 44.844a17.5 17.5 0 1 1 14-28 1.094 1.094 0 1 1-1.75 1.312 15.247 15.247 0 1 0 1.794 3.063 1.094 1.094 0 1 1 2.001-.875A17.5 17.5 0 0 1 35 44.844m5.053-9.406a1.09 1.09 0 0 0 .438-1.094l-.744-4.375 3.15-3.074a1.094 1.094 0 0 0-.602-1.87l-4.375-.634-1.936-3.883a1.094 1.094 0 0 0-1.958 0l-1.946 3.948-4.375.635a1.094 1.094 0 0 0-.602 1.87l3.15 3.074-.744 4.375a1.094 1.094 0 0 0 1.586 1.148L35 33.468l3.894 2.046a1.09 1.09 0 0 0 1.148-.087zm-5.556-4.168-2.45 1.28.47-2.723a1.1 1.1 0 0 0-.317-.963l-1.98-1.925 2.735-.393a1.1 1.1 0 0 0 .82-.602L35 23.46l1.225 2.472a1.1 1.1 0 0 0 .82.602l2.735.393-1.98 1.925a1.1 1.1 0 0 0-.317.963l.47 2.723-2.439-1.28a1.1 1.1 0 0 0-1.017 0zm6.07 20.443a6.1 6.1 0 0 0 2.975-2.188 6 6 0 0 1 1.51-1.356 6.1 6.1 0 0 1 2.045-.35 6.07 6.07 0 0 0 3.489-.974 6.1 6.1 0 0 0 1.728-3.193 6 6 0 0 1 .788-1.903 6 6 0 0 1 1.673-1.182 6.1 6.1 0 0 0 2.745-2.406 6.05 6.05 0 0 0 .175-3.598 6.1 6.1 0 0 1-.11-2.09 6 6 0 0 1 .974-1.75 6.14 6.14 0 0 0 1.422-3.38 6.14 6.14 0 0 0-1.444-3.4 5.9 5.9 0 0 1-.973-1.75 6.1 6.1 0 0 1 .11-2.09 6.04 6.04 0 0 0-.176-3.598 6.1 6.1 0 0 0-2.745-2.406 6 6 0 0 1-1.673-1.182 6 6 0 0 1-.788-1.903 6.1 6.1 0 0 0-1.728-3.193 6.07 6.07 0 0 0-3.49-.974 6.1 6.1 0 0 1-2.044-.35A6 6 0 0 1 43.53 5.13a6.1 6.1 0 0 0-2.975-2.188 6 6 0 0 0-3.522.635A6.2 6.2 0 0 1 35 4.2a6.2 6.2 0 0 1-2.034-.58 6 6 0 0 0-3.522-.634 6.1 6.1 0 0 0-2.975 2.188 6 6 0 0 1-1.51 1.356 6.1 6.1 0 0 1-2.045.35 6.07 6.07 0 0 0-3.49.973 6.1 6.1 0 0 0-1.727 3.194 6 6 0 0 1-.788 1.903 6 6 0 0 1-1.673 1.181 6.1 6.1 0 0 0-2.745 2.407 3.5 3.5 0 0 0-.263.765 1.119 1.119 0 1 0 2.188.47q.032-.147.098-.284a4.5 4.5 0 0 1 1.848-1.454 7.6 7.6 0 0 0 2.232-1.761 7.7 7.7 0 0 0 1.17-2.636 4.5 4.5 0 0 1 1.017-2.111 4.5 4.5 0 0 1 2.275-.503 7.7 7.7 0 0 0 2.844-.558 7.6 7.6 0 0 0 2.187-1.849 4.5 4.5 0 0 1 1.849-1.487 4.46 4.46 0 0 1 2.187.536 7.7 7.7 0 0 0 2.844.733 7.8 7.8 0 0 0 2.844-.733 4.46 4.46 0 0 1 2.187-.536c.76.295 1.425.79 1.925 1.433a7.5 7.5 0 0 0 2.188 1.848 7.7 7.7 0 0 0 2.844.569c.79-.02 1.57.17 2.264.547.513.607.856 1.339.995 2.122.226.946.63 1.84 1.192 2.636a7.6 7.6 0 0 0 2.308 1.717 4.5 4.5 0 0 1 1.827 1.498c.203.76.203 1.56 0 2.319a7.7 7.7 0 0 0-.088 2.91 7.5 7.5 0 0 0 1.313 2.515 4.53 4.53 0 0 1 1.093 2.187 4.53 4.53 0 0 1-1.093 2.188 7.5 7.5 0 0 0-1.313 2.516 7.7 7.7 0 0 0 .088 2.909c.202.76.202 1.56 0 2.319a4.5 4.5 0 0 1-1.849 1.454 7.6 7.6 0 0 0-2.286 1.597 7.7 7.7 0 0 0-1.17 2.636 4.5 4.5 0 0 1-1.017 2.111c-.701.365-1.486.538-2.275.503a7.7 7.7 0 0 0-2.844.558 7.6 7.6 0 0 0-2.188 1.849 4.5 4.5 0 0 1-1.848 1.487 4.45 4.45 0 0 1-2.187-.536 7.7 7.7 0 0 0-2.844-.733c-.986.061-1.951.31-2.844.733a4.45 4.45 0 0 1-2.187.536 4.5 4.5 0 0 1-1.925-1.433 7.5 7.5 0 0 0-2.188-1.848 7.7 7.7 0 0 0-2.844-.569c-.79.02-1.57-.17-2.264-.547a4.5 4.5 0 0 1-.995-2.122 7.7 7.7 0 0 0-1.192-2.636 7.6 7.6 0 0 0-2.308-1.717 4.5 4.5 0 0 1-1.827-1.498 4.5 4.5 0 0 1 0-2.32 7.7 7.7 0 0 0 .088-2.908 7.5 7.5 0 0 0-1.313-2.516 4.53 4.53 0 0 1-1.093-2.188 4.54 4.54 0 0 1 1.093-2.187l.361-.525c.435-.6.757-1.275.952-1.99a6 6 0 0 0 0-2.024 1.1 1.1 0 1 0-2.188.262c.072.424.072.856 0 1.28-.139.455-.353.884-.634 1.269l-.34.492a6.14 6.14 0 0 0-1.366 3.51 6.14 6.14 0 0 0 1.443 3.403c.422.523.751 1.115.974 1.75a6.1 6.1 0 0 1-.11 2.089 6.04 6.04 0 0 0 .175 3.598 6.1 6.1 0 0 0 2.746 2.406 6 6 0 0 1 1.673 1.181 6 6 0 0 1 .788 1.904 6.1 6.1 0 0 0 1.728 3.193 6.07 6.07 0 0 0 3.489.974 6.1 6.1 0 0 1 2.045.35 6 6 0 0 1 1.51 1.356 6.1 6.1 0 0 0 2.975 2.188 6.03 6.03 0 0 0 3.522-.635A6.2 6.2 0 0 1 35 50.488c.706.074 1.395.27 2.034.58a7.7 7.7 0 0 0 2.767.721q.384 0 .755-.087zM17.5 40.578 15.18 66.106l14.624-14.634a1.094 1.094 0 0 0-1.543-1.542L15.137 63.055l-1.192-7.186a1.09 1.09 0 0 0-.897-.897L5.852 53.77l12.173-12.206a1.093 1.093 0 0 0-1.542-1.543L2.8 53.726a1.093 1.093 0 0 0 .59 1.849l8.51 1.422 1.422 8.509a1.094 1.094 0 0 0 1.848.59zm42.23 7.23a1.094 1.094 0 0 0 0-1.542l-6.136-6.114a1.093 1.093 0 0 0-1.543 1.542l6.104 6.103a1.094 1.094 0 0 0 1.542 0zm-3.796 18.594a1.1 1.1 0 0 0 .744-.864l1.422-8.51 8.51-1.422a1.092 1.092 0 0 0 .59-1.848l-3.106-3.128a1.094 1.094 0 0 0-1.542 1.542l1.596 1.597-7.186 1.192a1.09 1.09 0 0 0-.896.897l-1.193 7.186L42.34 50.52a1.094 1.094 0 0 0-1.542 1.542l14.022 14.043a1.09 1.09 0 0 0 1.093.274zm5.316-18.277a1.094 1.094 0 1 0 0 2.187 1.094 1.094 0 0 0 0-2.187" />
</svg>