<svg xmlns="http://www.w3.org/2000/svg" viewBox="0 0 391 392" class="svg-icon">
    <path fill="currentColor" fill-rule="evenodd"
        d="M171 1.87c0 1.425-1.79 2.506-7.506 4.535-30.819 10.941-57.626 43.219-60.689 73.073-.272 2.66-.765 3.055-4.621 3.709C81.249 86.057 76.991 109.343 92 117l3.832 1.955-3.166 5.772c-9.638 17.574 1.387 40.934 21.187 44.894 2.511.502 3.302 1.387 4.571 5.109 3.691 10.833 8.596 17.467 25.803 34.898 10.743 10.882 18.798 18.175 22.091 20l5.182 2.872h48l5-2.643c3.325-1.758 10.874-8.625 22.536-20.5 16.357-16.655 17.854-18.497 22.25-27.365 2.593-5.229 4.714-10.066 4.714-10.75s.788-1.242 1.75-1.243c3.254-.001 13.726-5.712 17.636-9.618 9.002-8.992 11.12-24.304 4.93-35.654l-3.148-5.772 3.666-1.878c6.45-3.303 8.666-7.414 8.666-16.077 0-10.402-4.679-16.111-14.592-17.803-4.333-.74-4.4-.812-5.07-5.494C283.52 47.51 257.9 17.144 227.75 6.481 221.823 4.385 220 3.301 220 1.87 220 .094 218.767 0 195.5 0S171 .094 171 1.87m11.695 10.768c-.382.383-.695 13.22-.695 28.529V69h-11V43c0-30.241.871-28.517-11.331-22.415-22.933 11.468-43.412 38.29-44.942 58.863L114.5 82.5h162l-.227-3.052c-1.534-20.628-21.947-47.364-44.942-58.863C219.129 14.483 220 12.759 220 43v26h-10.969l-.265-28.25-.266-28.25-12.555-.278c-6.905-.154-12.868.034-13.25.416m-37.289 45.748c-.293.762-.391 3.349-.219 5.75l.313 4.364 5.75.3 5.75.3V57h-5.531c-3.792 0-5.699.436-6.063 1.386M234 63v6.1l5.75-.3 5.75-.3v-11l-5.75-.3-5.75-.3V63M98.315 94.999c-4.63 1.882-5.514 6.893-1.86 10.546L98.909 108h96.411c96.021 0 96.421-.008 99.045-2.073 3.123-2.456 3.388-5.776.724-9.066l-1.912-2.361-96.338-.194c-54.33-.11-97.292.192-98.524.693m27.866 47.251.319 22.25 3.408 7.905c4.134 9.591 8.539 15.12 25.809 32.397 17.388 17.396 16.827 17.154 39.783 17.154 23.343 0 22.414.424 41.644-19.003 25.686-25.949 27.132-29.122 27.654-60.703l.368-22.25H125.863l.318 22.25m-17.268-18.97c-10.244 6.903-11.334 20.351-2.377 29.309C113.864 159.917 114 159.67 114 139c0-9.9-.383-18-.852-18s-2.374 1.026-4.235 2.28M277 139c0 9.9.247 18 .55 18 4.455 0 12.027-8.994 12.992-15.435 1.131-7.539-6.908-20.565-12.692-20.565-.468 0-.85 8.1-.85 18m-138.193 93.168-.307 4.168-29 9.698c-33.006 11.038-35.497 12.098-44.694 19.01-11.911 8.953-20.589 21.948-24.731 37.037-1.573 5.732-10.123 55.897-14.686 86.169l-.565 3.75h341.352l-.562-3.75c-1.456-9.717-4.795-30.265-5.647-34.75-.522-2.75-2.548-14.9-4.503-27-4.825-29.869-7.478-37.451-17.518-50.068-10.879-13.672-18.383-17.715-56.446-30.415l-29-9.677-.307-4.17-.308-4.17h-11.603l-.571 8.25c-.508 7.355-7.767 39.142-9.283 40.654-.329.328-1.572-.56-2.763-1.972-3.751-4.449-7.646-9.147-15.491-18.682l-7.61-9.25h-18.197l-7.585 9.25c-8.027 9.79-11.914 14.491-15.447 18.682-1.191 1.412-2.434 2.3-2.763 1.972-1.516-1.512-8.775-33.299-9.283-40.654l-.571-8.25h-11.603l-.308 4.168M112 257.406c-32.833 11.055-36.394 12.771-45.612 21.985-12.153 12.147-14.58 18.656-20.493 54.946-3.559 21.843-3.588 21.617 2.862 21.648 1.791.008 7.641.658 13 1.443 5.358.786 12.722 1.732 16.364 2.103l6.621.674.629-4.352c.347-2.394 1.097-9.978 1.668-16.853 1.398-16.84.996-16 7.673-16h5.578l-.617 6.75c-.605 6.618-3.06 31.649-4.314 44l-.635 6.25h70.134l1.031-5.25c.566-2.887 1.275-7.275 1.575-9.75s1.679-12.375 3.065-22 3.197-22.675 4.025-29 1.746-12.281 2.039-13.236c.475-1.548-5.464-11.948-7.565-13.246-.426-.264-3.537 2.887-6.914 7.001S155.627 302 155.202 302s-3.643-11.587-7.152-25.75c-7.058-28.491-6.999-28.28-7.907-28.176-.354.04-13.018 4.24-28.143 9.332m137.429-6.656c-.335 1.512-1.008 4.1-1.496 5.75-.487 1.65-2.707 10.425-4.931 19.5-5.633 22.979-6.252 25.393-6.741 26.291-.236.435-3.368-2.822-6.96-7.238-7.312-8.992-7.023-8.955-11.801-1.485l-3.477 5.435 1.453 9.249c1.603 10.195 7.206 49.635 8.063 56.748.298 2.475 1.006 6.863 1.572 9.75l1.031 5.25h70.134l-.635-6.25c-1.254-12.351-3.709-37.382-4.314-44l-.617-6.75h5.578c6.698 0 6.286-.886 7.683 16.5 1.55 19.297 1.808 20.505 4.367 20.471 4.491-.059 38.685-4.66 39.314-5.289.362-.362-.107-5.276-1.042-10.92A5528 5528 0 0 1 343.379 324c-3.987-24.736-7.666-33.514-18.637-44.48-9.336-9.331-12.664-10.933-46.024-22.166-32.297-10.874-28.531-10.025-29.289-6.604M184.5 267.608c-3.85 4.685-6.949 9.093-6.887 9.797.061.703 2.627 5.137 5.7 9.852 4.618 7.085 5.512 9.153 5.147 11.909-.244 1.833-1.355 9.634-2.47 17.334s-2.701 18.725-3.523 24.5-2.389 16.653-3.481 24.173S177 379.106 177 379.423s8.345.577 18.545.577h18.546l-.515-3.25c-.284-1.788-1.205-8.2-2.049-14.25a10256 10256 0 0 0-6.529-46c-1.109-7.7-2.217-15.516-2.463-17.369-.37-2.782.474-4.783 4.85-11.5 2.914-4.472 5.62-8.691 6.013-9.376.436-.761-2.131-4.749-6.592-10.243-7.019-8.643-7.463-8.995-11.306-8.959-3.791.035-4.366.482-11 8.555M39.642 370.75c-.341 2.063-.625 4.988-.631 6.5L39 380h43.75l.637-3.187c.867-4.333.487-4.549-10.907-6.19-32.295-4.649-32.049-4.65-32.838.127M337 368.141c-3.575.487-11.663 1.58-17.973 2.429-13.362 1.796-12.334 1.275-11.48 5.828l.676 3.602h21.888c24.679 0 22.516.851 21.253-8.36-.724-5.284-.92-5.332-14.364-3.499" />
</svg>