<svg xmlns="http://www.w3.org/2000/svg" viewBox="0 0 389 392" class="svg-icon">
    <path fill="currentColor" fill-rule="evenodd"
        d="M200 5.167c-4.752 1.339-20 17.538-20 21.248 0 .877-1.8 3.088-5.5 6.755-3.926 3.891-7.015 3.5-19.5-2.471-15.85-7.58-20.007-8.419-26.345-5.319-7.196 3.521-9.415 8.177-10.177 21.353-.581 10.053-2.133 20.091-3.431 22.191-.44.711-7.35 1.917-17.142 2.991-18.098 1.986-21.711 3.271-25.752 9.163-4.112 5.997-2.811 12.015 7.484 34.608 4.203 9.225 2.756 12.248-9.936 20.76-23.455 15.729-24.756 28.076-4.518 42.863 2.026 1.48 4.051 2.697 4.5 2.705s3.404 2.295 6.567 5.083c7.668 6.76 7.653 7.575-.458 24.903-6.159 13.159-7.038 18.081-4.371 24.466 2.8 6.701 8.443 8.942 27.829 11.052 6.91.752 7.272 1.979 2.75 9.328-1.65 2.681-3 5.193-3 5.581s-1.125 2.181-2.5 3.984-2.5 3.555-2.5 3.895-2.403 4.621-5.339 9.515-5.64 9.524-6.007 10.289c-.367.764-1.799 3.19-3.182 5.39s-2.809 4.675-3.169 5.5-2.269 4.2-4.243 7.5c-4.032 6.74-4.027 6.732-11.001 18.629-8.792 14.996-6.911 17.58 11.607 15.947 6.509-.574 14.534-1.239 17.834-1.478a362 362 0 0 0 12.186-1.138l6.185-.704 3.462 7.372c3.408 7.255 8.135 17.442 14.63 31.523 5.457 11.83 9.839 11.158 17.288-2.651 4.785-8.872 20.526-35.867 22.878-39.236 1.05-1.504 2.37-3.754 2.933-5a53 53 0 0 1 2.231-4.297l7.564-12.75c3.497-5.894 6.6-10.717 6.897-10.717.296 0 2.663 1.987 5.26 4.417 9.413 8.804 18.832 7.831 28.236-2.917 2.258-2.581 3.175-1.571 11.358 12.509 3.241 5.576 6.896 11.792 8.122 13.815 1.227 2.022 2.534 4.351 2.906 5.176s3.462 6.225 6.868 12c15.472 26.24 19.153 32.617 19.777 34.265.367.971 1.804 2.197 3.193 2.725 4.28 1.628 6.812-.19 9.932-7.129 1.573-3.499 4.544-9.961 6.602-14.361s5.215-11.263 7.015-15.251c1.801-3.988 3.811-7.696 4.468-8.241.795-.66 8.921-.313 24.341 1.041 31.869 2.798 33.554 1.602 22.875-16.237-6.39-10.675-13.382-22.537-14.707-24.949-.825-1.502-3.272-5.798-5.439-9.547-2.166-3.749-4.416-7.722-5-8.83s-2.007-3.358-3.162-5c-1.156-1.642-4.018-6.527-6.361-10.855-2.342-4.327-5.334-9.452-6.649-11.389-4.463-6.577-3.156-7.748 9.611-8.611 12.681-.858 18.91-3.748 22.048-10.23 3.165-6.539 2.4-10.011-6.262-28.401-4.201-8.919-4.8-15.292-1.743-18.545 1.268-1.35 2.803-2.455 3.411-2.455.607 0 1.753-.9 2.546-2s1.811-2 2.263-2c1.103 0 11.132-7.448 13.814-10.259 11.941-12.515 8.669-22.031-12.472-36.27-10.987-7.4-11.964-8.702-11.307-15.069.314-3.047 1.012-6.072 1.551-6.721 1.888-2.277 8.965-19.623 9.643-23.634.529-3.128.185-5.083-1.509-8.582-3.302-6.821-7.232-8.398-26.483-10.629-11.345-1.314-16.324-2.288-17.113-3.348-1.125-1.512-1.608-4.689-3.464-22.772-1.273-12.402-3.281-16.669-9.583-20.363l-4.664-2.733-6.253 1.64c-5.3 1.39-19.695 7.431-25.659 10.768-5.384 3.013-8.508.806-18.442-13.028a1919 1919 0 0 0-6.967-9.647c-2.317-3.171-11.42-8.43-14.301-8.263-.855.05-3.129.534-5.054 1.077m-.502 15.012c-1.557 1.748-4.961 6.361-7.563 10.25-8.868 13.255-14.706 17.79-22.819 17.722-4.851-.04-7.475-.948-20.804-7.198-15.65-7.338-17.33-6.701-17.907 6.782C129.158 76.834 123.481 84 101.671 84c-17.009 0-21.112 2.146-18.545 9.701.71 2.089 1.66 4.31 2.111 4.935 1.847 2.562 8.619 19.552 9.227 23.152 1.343 7.947-4.393 15.69-18.857 25.455C66.34 153.499 64 156.004 64 159.671c0 3.445-.312 3.139 13.5 13.255 12.601 9.228 17.417 15.175 17.474 21.574.017 1.969-3.867 13.916-5.248 16.139C87.898 213.583 82 228.386 82 230.03c0 2.728 1.075 3.07 12.807 4.075 30.073 2.578 33.614 5.741 35.125 31.369 1.233 20.895 1.446 20.993 22.568 10.32 18.243-9.218 26.934-6.419 39.5 12.723 11.527 17.557 13.217 17.486 26.372-1.112 13.832-19.554 19.412-20.798 42.841-9.549 16.019 7.692 17.664 6.876 17.854-8.856.044-3.575.459-8.75.923-11.5 3.104-18.397 7.144-21.149 34.397-23.433 15.858-1.329 15.67-.719 6.452-20.865-9.775-21.364-7.581-28.14 13.661-42.186 15.34-10.143 15.09-12.648-2.5-25.045-19.274-13.584-20.899-19.983-10.534-41.471C325.368 96.412 328 90.128 328 88.901c0-2.625-5.396-4.051-18.391-4.859-24.944-1.551-28.417-5.339-30.581-33.357-.545-7.048-1.25-13.235-1.568-13.75-.722-1.169-4.914-1.216-7.224-.082-.955.469-3.536 1.651-5.736 2.626s-5.582 2.586-7.516 3.579c-10.71 5.503-19.657 6.543-25.456 2.959C227.97 43.819 219 34.255 219 32.661c0-1.047-5.166-7.889-9.371-12.411-3.803-4.091-6.532-4.11-10.131-.071M197.5 53.62c-17.411 1.5-30.722 5.954-49 16.395-5.482 3.131-6.908 4.284-16.503 13.344-39.349 37.156-43.239 100.748-8.739 142.849 31.856 38.874 82.996 49.865 128.492 27.615 6.738-3.295 12.25-6.403 12.25-6.907a.91.91 0 0 1 .897-.916c2.291 0 18.068-15.318 24.203-23.5 5.606-7.477 13.469-22.759 15.299-29.735a448 448 0 0 1 3.159-11.265c2.105-7.099 2.495-35.17.587-42.25a586 586 0 0 1-2.192-8.435C294.53 85.138 244.556 49.567 197.5 53.62m-5 12.783c-.55.205-3.7.927-7 1.605-10.484 2.154-21.401 6.506-29.5 11.759a4277 4277 0 0 1-5.407 3.501c-9.961 6.432-23.31 22.291-29.237 34.732C95.685 171.893 125.9 236.886 183 250.596c11.536 2.77 33.871 2.569 44.856-.404 20.806-5.629 45.496-23.386 54.723-39.355 16.31-28.228 19.304-55.672 9.198-84.337-1.163-3.3-2.429-6.45-2.813-7s-2.181-3.7-3.993-7c-6.322-11.516-17.765-23.684-29.715-31.598-4.072-2.696-7.623-4.902-7.891-4.902-.269 0-2.823-1.098-5.677-2.44-9.96-4.685-20.177-6.799-34.688-7.177-7.425-.193-13.95-.184-14.5.02m30.322 90.097c-18.194 18.425-33.809 33.497-34.701 33.493-.891-.005-8.557-7.003-17.035-15.553-16.967-17.111-17.931-17.853-22.043-16.949-2.718.597-3.995 2.68-4.029 6.571-.027 3.035 39.817 41.938 42.951 41.938 2.348 0 8.53-5.761 38.463-35.844 19.616-19.714 36.363-36.84 37.216-38.058 2.819-4.025-.727-9.024-6.443-9.084-.715-.008-16.185 15.061-34.379 33.486M108.5 269.65a2391 2391 0 0 0-7.603 13.254c-1.432 2.528-5.145 8.816-8.25 13.974S87 306.406 87 306.589s-2.497 4.495-5.549 9.581c-7.466 12.443-7.497 13.363-.451 13.212 3.025-.066 11.686-.699 19.247-1.408 15.805-1.482 16.206-1.341 19.926 7.001 1.109 2.489 3.5 7.675 5.313 11.525s4.309 9.385 5.549 12.301c3.242 7.622 5.081 6.949 11.76-4.301 2.938-4.95 5.993-10.35 6.789-12 1.548-3.212 2.752-5.245 5.916-9.992 1.1-1.65 2.842-4.577 3.872-6.504 4.722-8.84 6.931-12.622 8.227-14.083.771-.868 1.401-1.874 1.401-2.236 0-.361 2.25-4.409 5-8.994 5.92-9.873 5.852-9.217 1.459-13.941-4.302-4.628-6.996-4.787-15.049-.891-15.133 7.322-20.12 9.141-25.064 9.141-11.707 0-15.65-5.636-17.137-24.5-.994-12.61-2.825-12.77-9.709-.85m183.371-5.9c-1.467 31.285-9.866 37.506-34.696 25.698-15.658-7.445-18.747-7.838-23.054-2.934-2.33 2.655-3.116 4.368-2.723 5.935.5 1.994 7.524 14.697 11.82 21.379.945 1.47 2.408 4.022 3.251 5.672s2.862 5.125 4.486 7.722c1.625 2.598 4.4 7.323 6.167 10.5 1.767 3.178 5.5 9.603 8.296 14.278s5.405 9.288 5.8 10.25c1.3 3.17 4.741 2.099 6.423-2 .846-2.062 3.028-6.9 4.85-10.75a605 605 0 0 0 6.023-13.197c4.687-10.712 2.051-10.282 40.236-6.566 7.376.717 6.528-2.761-5.102-20.939-2.006-3.136-3.648-5.957-3.648-6.27s-1.149-2.388-2.554-4.613-3.429-5.591-4.5-7.48l-3.892-6.87c-2.194-3.871-5.933-10.158-7.794-13.103-.681-1.079-2.153-3.649-3.27-5.712-2.515-4.644-5.922-5.201-6.119-1" />
</svg>