<svg xmlns="http://www.w3.org/2000/svg" viewBox="0 0 391 392" class="svg-icon">
    <path fill="currentColor" fill-rule="evenodd"
        d="M181 19.075c-17.473 2.035-30.355 8.203-42.562 20.382-20.863 20.815-27.047 49.452-16.383 75.864 4.296 10.639 4.026 11.451-5.055 15.195-4.125 1.701-11.868 5.261-17.207 7.913-11.039 5.482-10.387 5.492-23.611-.354-11.668-5.159-19.766-6.316-22.555-3.223-3.153 3.497-1.888 12.386 3.186 22.394 5.202 10.258 5.261 9.386-1.232 18.036-6.574 8.756-13.656 22.66-16.536 32.468l-2.13 7.25h-8.343c-12.783 0-22.601 6.261-25.089 16-.351 1.375-1.318 3.254-2.149 4.176-1.967 2.183-1.597 24.906.416 25.575.688.229 1.25 1.416 1.25 2.638 0 5.317 13.59 17.806 31.133 28.611 4.018 2.475 9.459 5.971 12.091 7.769s6.245 4.107 8.03 5.13 7.835 4.727 13.443 8.23c5.609 3.504 11.571 7.138 13.25 8.074L84 322.907l.015 22.296c.019 28.51-.646 27.041 12.712 28.115 5.596.449 14.328.449 19.405 0l9.231-.818 5.766-10.5c10.036-18.275 9.129-17.309 15.705-16.723 3.116.279 10.391 1.27 16.166 2.204 22.863 3.698 64.217-.389 85.388-8.439 4.804-1.826 8.512-1.331 9.052 1.208 7.69 36.177 5.34 33.271 26.839 33.186 17.77-.069 21.089-.542 22.324-3.177.454-.968.985-16.385 1.182-34.261l.357-32.501 5.012-5.499c21.959-24.091 31.849-58.709 24.46-85.62-.737-2.683-1.939-6.995-2.672-9.583l-1.333-4.705 5.521-5.795c3.037-3.187 6.789-7.715 8.34-10.062 1.787-2.705 3.772-4.45 5.424-4.766 12.883-2.466 23.406-7.919 31.214-16.175 2.753-2.91 5.43-5.292 5.949-5.292.518 0 .943-.45.943-1s-.43-1-.955-1-2.079-1.125-3.454-2.5c-3.271-3.271-3.013-3.343-10.956 3.051-8.088 6.511-13.488 9.449-17.365 9.449h-2.81l.02-15.25c.019-14.853-.051-15.369-2.714-19.811-9.612-16.033-29.867-16.267-38.021-.439-7.069 13.719-.539 29.47 17.625 42.514 5.384 3.867 5.717 5.731 1.88 10.539-4.436 5.56-6.729 4.82-13.496-4.36-14.045-19.052-34.642-34.701-60.254-45.78-11.524-4.985-11.78-5.427-8.153-14.06 9.2-21.894 7.947-43.252-3.684-62.853-9.885-16.656-27.998-30.201-45.324-33.893-9.596-2.044-14.844-2.404-22.339-1.532m-1.5 11.571c-22.034 3.301-39.32 17.298-47.473 38.44-4.007 10.391-4.421 28.852-.877 39.16 8.853 25.756 29.132 40.034 56.85 40.025 45.319-.014 72.362-45.257 51.898-86.827-4.184-8.499-17.093-20.975-26.108-25.231-9.007-4.253-25.349-6.906-34.29-5.567m5.28 21.418c-.947.551-2.201 2.787-2.789 4.969-.662 2.459-1.658 3.967-2.62 3.967C174.789 61 165 72.4 165 77.736c0 2.195 3.628 8.605 6.153 10.871C176.223 93.158 184 95.514 184 92.5c0-.933.944-1.5 2.5-1.5 1.923 0 2.502.519 2.51 2.25.008 1.673 1.033 2.68 4 3.926 7.832 3.289 4.352 10.84-4.983 10.809-5.994-.019-9.159-1.759-11.249-6.186-2.641-5.592-8.003-5.985-10.783-.79-2.077 3.882 4.279 13.074 11.62 16.804 3.059 1.553 4.269 2.859 4.714 5.084 1.294 6.466 8.468 6.226 11.226-.375.86-2.057 2.776-4.156 4.698-5.145 7.469-3.843 12.35-12.61 10.583-19.008-1.109-4.016-7.09-10.73-10.336-11.601-19.181-5.149-21.5-6.213-21.5-9.866 0-3.023 3.945-4.902 10.288-4.902 7.001 0 9.031.942 10.696 4.962.692 1.671 1.654 3.038 2.137 3.038s.879.675.879 1.5c0 2.876 6.2.582 7.732-2.86 2.084-4.683-4.156-14.068-11.386-17.124-1.741-.736-3.472-2.382-3.865-3.675-1.579-5.198-5.373-7.717-8.701-5.777m145.49 76.639c-6.741 1.302-8.789 14.519-3.402 21.956 6.338 8.75 14.959 13.841 16.525 9.759.334-.87.607-6.539.607-12.599 0-12.87-1.393-17.063-6.23-18.749-3.135-1.093-3.618-1.117-7.5-.367m-204.281 9.732c-6.205 2.288-23.09 10.482-29.008 14.077-7.128 4.33-8.434 4.332-15.787.022-3.253-1.906-7.777-3.763-10.054-4.128-5.687-.909-5.696 2.567-.029 11.264 4.849 7.442 4.74 8.956-1.102 15.374-8.845 9.716-13.664 18.375-21.629 38.864-3.865 9.941-5.555 11.077-17.998 12.091-15.636 1.275-15.553 1.161-16.17 22.301l-.432 14.8 3.935 3.744c4.548 4.326 20.275 14.885 45.509 30.553a853 853 0 0 1 11.276 7.134c2.75 1.781 7.999 4.885 11.665 6.898 9.78 5.372 9.266 3.884 9.835 28.473l.5 21.598 11.158.282 11.159.282 6.341-12.096c3.488-6.652 7.513-13.509 8.945-15.237l2.602-3.141 10.898 1.786c29.296 4.802 62.012 4.103 85.397-1.824 8.95-2.268 22.251-6.623 23.685-7.754.651-.514 2.673-.791 4.493-.616 4.402.423 5.222 2.339 9.027 21.065 1.704 8.389 3.536 15.816 4.069 16.503.66.85 4.131 1.25 10.848 1.25H295l.044-24.25c.059-32.588.669-37.516 5.183-41.881 11.086-10.717 21.635-28.085 25.432-41.869 2.509-9.109 2.539-32.874.053-41.934-8.463-30.849-38.495-60.206-74.193-72.528-9.204-3.176-10.742-3.168-14.217.08-1.541 1.44-4.714 4.194-7.052 6.121-5.808 4.786-5.56 7.99.75 9.69 21.966 5.916 28.944 10.714 24.164 16.616l-1.93 2.384-14.367-4.73c-34.117-11.234-74.084-10.895-105.367.894-10.161 3.829-10.714 3.873-13.354 1.063-5.195-5.53 1.544-10.061 24.604-16.542 6.402-1.799 5.809-4.303-2.817-11.895-7.566-6.658-9.383-7.203-15.944-4.784m-46.956 60.373c-8.831 1.388-13.763 12.81-8.763 20.294 6.734 10.08 21.46 7.78 24.672-3.853 2.429-8.799-6.41-17.934-15.909-16.441" />
</svg>