<svg xmlns="http://www.w3.org/2000/svg" viewBox="0 0 389 392" class="svg-icon">
    <path fill-rule="evenodd" fill="currentColor"
        d="M123.255 1.218c-2.135 1.03-4.237 6.018-4.249 10.085-.003.991-.715 4.92-1.582 8.732-1.575 6.924-1.579 6.93-5.75 7.942-2.296.557-6.059 1.658-8.363 2.447l-4.189 1.435-7.758-9.43c-9.45-11.485-9.575-11.505-22.865-3.698-13.76 8.084-13.653 7.819-8.617 21.309C62.147 46.107 64 51.199 64 51.356s-2.797 3.1-6.216 6.54c-6.996 7.04-5.821 6.911-19.022 2.079-11.981-4.385-12.408-4.206-19.739 8.291-7.983 13.608-7.95 13.944 2.227 22.816 4.538 3.956 8.64 7.543 9.116 7.971.48.431-.14 4.588-1.387 9.31l-2.254 8.53-4.839 1.038c-2.662.571-6.763 1.31-9.113 1.643C.936 121.25 0 122.587 0 137.825c0 15.148.291 15.439 18.279 18.245 4.278.667 8.003 1.577 8.278 2.022.532.861 4.443 15.754 4.443 16.92 0 .381-2.602 2.737-5.782 5.235-14.504 11.395-14.498 11.373-6.468 25.722 7.4 13.224 7.47 13.253 20.44 8.592 5.67-2.038 10.797-3.854 11.391-4.037 1.632-.501 13.553 11.931 13.011 13.567-.257.775-2.107 5.875-4.111 11.333-4.236 11.536-4.008 12.959 2.688 16.796 2.382 1.366 7.233 4.151 10.78 6.19 8.381 4.817 9.288 4.508 18.436-6.275l7.517-8.86 8.451 2.113 8.45 2.112 1.534 7.5c.843 4.125 1.826 9.3 2.183 11.5 1.149 7.077 2.086 7.5 16.635 7.5 15.746 0 16.046-.197 17.757-11.615 2.312-15.44 1.694-14.382 9.602-16.415 3.842-.987 7.679-2.072 8.527-2.409 1.089-.434 3.719 2.044 8.966 8.447 9.581 11.693 9.477 11.676 23.044 3.873 12.84-7.385 13.323-8.219 10.011-17.28-1.227-3.356-2.943-8.262-3.815-10.904l-1.585-4.802 6.302-6.359 6.303-6.359 8.116 2.993c14.459 5.331 14.269 5.29 16.812 3.602 3.57-2.37 14.093-21.487 13.384-24.313-.32-1.276-4.598-5.754-9.508-9.953l-8.925-7.633 1.584-5.187c.871-2.852 1.856-6.75 2.19-8.661.545-3.129 1.001-3.54 4.593-4.136C273.608 152.89 272 154.268 272 137.611c0-15.897-.106-16.046-12.972-18.231-13.478-2.289-13.045-2.004-15.146-9.955-2.692-10.191-2.715-10.132 6.703-17.813 4.66-3.8 8.706-7.925 9.027-9.202.818-3.257-11.158-24.258-14.279-25.041-2.001-.502-17.623 4.11-22.178 6.548-1.503.804-2.936-.151-8.216-5.478l-6.395-6.453 3.941-11.379c4.953-14.302 4.964-14.274-8.393-21.857-13.536-7.684-13.339-7.715-22.747 3.59l-7.772 9.34-4.536-1.341a222 222 0 0 0-8.626-2.335l-4.089-.994-1.119-6.755a896 896 0 0 1-1.776-11.165c-1.175-7.889-3.41-9.102-16.632-9.022-6.212.037-12.305.555-13.54 1.15m6.289 11.032c-.216.688-1.308 5.967-2.427 11.733-2.304 11.877-2.616 12.265-11.206 13.955-3.329.655-8.798 2.068-12.153 3.139-7.949 2.54-8.528 2.277-16.817-7.647-8.174-9.787-6.781-9.241-13.607-5.335-6.108 3.495-6.01 2.274-1.246 15.477C73.689 48.012 75 52.584 75 53.733c0 2.083-17.352 20.421-20.448 21.609-1.646.631-6.451-.702-16.763-4.652l-6.71-2.571-3.04 5.312c-4.003 6.997-4.222 6.382 5.081 14.224 9.974 8.407 10.159 8.869 7.32 18.312-1.246 4.143-2.557 9.108-2.915 11.033-.548 2.949-2.469 8.936-2.896 9.027-.071.015-5.304 1.058-11.629 2.316l-11.5 2.289v13.861l7.5 1.145c16.115 2.461 17.206 3.148 18.435 11.621.38 2.617 1.768 7.927 3.084 11.798 3.051 8.968 2.704 9.814-7.369 17.943-9.104 7.347-9.235 7.712-5.129 14.25 3.454 5.501 2.906 5.354 9.993 2.681 17.23-6.499 15.244-6.87 27.076 5.062 11.429 11.526 11.259 10.893 6.403 23.766-4.326 11.467-4.522 10.158 2.117 14.129l5.609 3.355 2.141-2.371c1.178-1.305 4.164-4.847 6.637-7.872 7.438-9.101 7.999-9.29 17.596-5.936 3.249 1.135 8.356 2.476 11.35 2.979 7.361 1.237 7.88 1.986 10.448 15.071l2.234 11.386 6.657.295c6.251.277 6.686.155 7.12-2 .255-1.262 1.292-6.795 2.305-12.295l1.843-10 3.975-1.177c27.084-8.016 24.784-8.188 33.57 2.51 8.638 10.517 7.44 9.995 13.839 6.018 5.967-3.71 5.972-3.748 1.941-14.69-4.435-12.042-4.479-11.873 5.75-22.468 4.881-5.056 9.514-9.596 10.296-10.088 1.696-1.069 8.346.496 16.701 3.931 7.862 3.232 7.733 3.268 11.368-3.173 3.651-6.469 4.615-4.567-7.74-15.281-8.237-7.144-8.07-6.54-4.825-17.437 1.334-4.48 2.717-10.017 3.073-12.306.934-6.001 2.755-7.104 15.078-9.128l10.924-1.794v-13.785l-11.278-2.216c-13.147-2.585-13.905-3.058-14.797-9.248-.37-2.567-1.778-8.207-3.129-12.532-3.054-9.784-2.726-11.029 4.427-16.784 11.539-9.285 11.586-9.348 9.677-13.086-3.641-7.127-5.361-8.857-7.611-7.653-2.317 1.24-18.702 6.887-19.983 6.887-.451 0-5.385-4.505-10.965-10.011-11.692-11.538-11.558-11.073-6.897-23.893 3.902-10.73 3.924-10.548-1.694-14.075-6.331-3.976-5.81-4.185-13.57 5.435-8.028 9.951-8.808 10.305-16.952 7.701-3.425-1.095-8.703-2.53-11.728-3.187-8.984-1.952-9.551-2.606-11.413-13.169C142.889 9.493 143.886 11 136.45 11c-4.334 0-6.644.418-6.906 1.25M117.5 53.924c-42.279 10.731-70.982 51.152-65.507 92.25 8.962 67.275 81.903 99.242 135.276 59.284 21.954-16.435 33.194-39.67 33.119-68.458-.057-21.838-2.925-30.337-9.667-28.645-3.593.902-4.091 3.481-2.09 10.826 5.725 21.007-.591 48.47-15.227 66.214-34.612 41.962-103.787 32.603-124.877-16.895-8.795-20.641-8.499-45.298.766-64 23.369-47.167 83.04-56.798 119.936-19.358 9.287 9.425 12.59 10.933 14.821 6.765 1.889-3.53.193-6.728-7.836-14.779-20.868-20.925-51.786-30.039-78.714-23.204m10.412 40.087c-16.149 2.733-32.401 19.116-34.475 34.756-.808 6.084.384 8.233 4.563 8.233 3.427 0 4.621-1.4 5.547-6.5 1.123-6.189 4.822-12.663 9.919-17.362 21.929-20.213 55.837-5.468 55.833 24.28-.004 31.337-37.883 45.148-58.575 21.358-5.625-6.467-8.638-7.363-11.266-3.352-4.044 6.171 9.906 19.767 24.949 24.318 37.448 11.326 69.78-32.207 48.945-65.901-9.177-14.841-27.546-22.857-45.44-19.83m-.412 26.085c-10.159 5.792-10.5 6.363-10.5 17.563 0 11.113.238 11.46 12.233 17.8l7.468 3.947 7.399-4.344c11.426-6.708 10.9-5.862 10.9-17.526 0-11.84.085-11.688-9.675-17.363-8.715-5.069-9.068-5.071-17.825-.077m4 9.736c-3.752 2.593-4 3.07-4 7.697 0 4.796.122 4.999 4.41 7.365l4.41 2.433 4.34-2.303c4.279-2.27 4.34-2.376 4.34-7.568 0-5.171-.08-5.313-4.428-7.861-5.28-3.094-4.213-3.122-9.072.237m152.677 81.991c-1.025 1.025-2.643 5.563-3.697 10.37-1.821 8.307-1.974 8.583-5.427 9.785-1.954.68-5.425 2.148-7.713 3.262l-4.161 2.025-8.369-5.133c-4.603-2.822-8.976-5.132-9.718-5.132s-5.342 3.906-10.221 8.681c-10.636 10.408-10.813 11.27-4.371 21.319 5.353 8.352 5.213 6.618 1.307 16.172-3.008 7.357-3.399 7.845-6.75 8.417C209.048 284.323 208 285.45 208 299.932c0 14.749.37 15.355 10.761 17.632 10.311 2.26 10.558 2.433 12.573 8.827.961 3.047 2.179 5.808 2.706 6.134 1.817 1.122.949 3.825-3.54 11.027-6.163 9.889-6.07 10.353 4.17 20.698 10.243 10.348 10.808 10.466 20.33 4.25 8.198-5.352 6.608-5.218 16.056-1.355l7.692 3.146 1.788 8.516c2.513 11.979 2.817 12.193 17.273 12.193 14.487 0 14.538-.034 17.429-11.391 1.245-4.89 2.938-9.267 3.762-9.726 3.867-2.151 12.504-5.883 13.615-5.883 1.432 0 13.16 6.827 13.965 8.129 1.896 3.069 6.453.655 14.83-7.855 10.13-10.29 10.185-10.575 4.019-20.732l-4.571-7.53 2.571-6.426c1.414-3.535 2.571-6.897 2.571-7.471 0-1.581 2.727-2.685 11.239-4.551 10.283-2.253 10.761-2.995 10.761-16.721 0-15.85-.124-15.986-17.705-19.366-2.116-.407-3.425-1.356-3.853-2.796-.357-1.2-1.79-4.772-3.186-7.939l-2.536-5.758 4.64-7.519c6.377-10.334 6.257-11.053-3.522-21.071-10.433-10.689-10.051-10.608-20.417-4.346-8.509 5.139-8.605 5.169-11.75 3.604-1.744-.868-5.22-2.43-7.725-3.472l-4.554-1.894-1.837-8.393c-2.548-11.64-2.923-11.893-17.666-11.893-10.171 0-12.152.263-13.712 1.823m6.819 10.688c-.545 1.433-1.273 4.492-1.618 6.798-1.017 6.806-3.109 10.387-6.459 11.057-1.627.326-6.389 2.176-10.58 4.113-9.55 4.412-10.442 4.388-18.129-.489-7.71-4.89-7.922-4.894-12.507-.198-4.538 4.647-4.563 3.912.411 12.283 4.715 7.937 4.713 8.404-.117 20.425-5.494 13.676-4.656 12.748-13.529 14.988-10.44 2.636-10.468 2.66-10.468 9.036 0 6.256.307 6.521 9.803 8.475 6.843 1.408 11.197 4.107 11.197 6.94 0 2.062 3.734 11.607 5.685 14.534 2.249 3.374 1.47 7.417-2.825 14.646l-4.139 6.968 2.934 3.626c4.742 5.858 5.465 6.019 10.966 2.443 10.347-6.726 10.804-6.795 18.807-2.822 3.89 1.93 9.019 4.021 11.398 4.647 4.901 1.288 5.986 3.118 8.167 13.769l1.28 6.25h13.361l1.787-7.75c2.23-9.676 3.563-11.823 7.759-12.506 1.826-.297 6.753-2.17 10.95-4.163 8.632-4.099 8.949-4.067 17.847 1.805 6.764 4.463 6.788 4.463 11.32-.178 4.568-4.678 4.567-4.753-.112-12.44-5.348-8.787-5.374-8.953-2.308-14.925 1.509-2.939 3.537-7.903 4.507-11.032 2.291-7.39 3.316-8.035 17.866-11.243 2.674-.589 2.75-.795 2.75-7.476v-6.869l-3.75-.645c-13.642-2.343-14.222-2.709-16.757-10.578-.974-3.025-3.09-8.137-4.703-11.361l-2.931-5.861 4.571-7.866c5.496-9.46 5.448-8.649.778-13.209-4.699-4.589-4.773-4.587-12.329.297-7.529 4.866-8.646 4.902-18.004.578-4.074-1.883-8.619-3.727-10.1-4.098-3.911-.982-5.041-2.822-7.291-11.872l-2.016-8.108-6.24-.298c-5.925-.283-6.291-.166-7.232 2.309m-4.24 26.951c-32.165 7.04-49.783 43.746-35.198 73.334 16.163 32.79 58.413 39.69 83.44 13.628 18.612-19.383 19.701-47.154 2.71-69.118-9.008-11.645-18.135-13.534-16.763-3.47.1.736 1.717 2.685 3.593 4.332 23.896 20.98 17.438 59.424-11.958 71.186-7.245 2.899-22.007 2.86-29.36-.076-33.196-13.257-35.546-59.247-3.878-75.889 5.608-2.946 8.418-3.773 14.082-4.145 8.06-.528 11.576-2.232 11.576-5.612q.002-8.164-18.244-4.17m4.744 26.343c-19.78 7.014-24.812 30.357-9.389 43.558 18.987 16.252 47.741-3.691 39.401-27.328-4.177-11.841-19.311-20.025-30.012-16.23m-141.845 8.024c-.91 1.006-1.655 3.388-1.655 5.293 0 3.231-.286 3.541-4.248 4.599-4.17 1.113-4.299 1.071-7.073-2.294-5.913-7.174-12.617-2.009-8.279 6.379 1.32 2.554 1.214 2.894-1.885 6.035-3.276 3.32-3.294 3.325-6.508 1.663-3.824-1.978-7.617-1.31-8.508 1.498-.983 3.097.355 5.871 3.653 7.577 2.221 1.148 2.821 1.997 2.288 3.239-.398.925-.935 2.92-1.195 4.432-.356 2.075-1.042 2.75-2.793 2.75-9.851 0-11.424 10.361-1.7 11.196 3.249.279 3.648.672 4.865 4.804.757 2.569.931 4.636.405 4.817-4.786 1.644-7.514 7.291-4.822 9.983 1.552 1.552 6.283 1.54 8.786-.023 3.239-2.023 9.611 4.663 7.506 7.876-3.12 4.761-1.328 9.347 3.651 9.347 2.007 0 3.229-.827 4.55-3.082 1.66-2.831 2.124-3.031 5.712-2.463 5.254.832 5.595 1.139 5.595 5.033 0 3.886 2.166 6.512 5.371 6.512 3.218 0 4.629-1.876 4.629-6.153 0-3.485.268-3.827 3.75-4.794 5.593-1.554 6.589-1.323 8.453 1.953 4.002 7.033 12.255 1.714 8.413-5.421l-1.767-3.28 3.152-3.153c3.217-3.217 5.395-3.938 6.499-2.152 1.336 2.162 7.485 1.126 8.663-1.459 1.097-2.408-.886-7.513-2.936-7.556-2.722-.058-3.309-1.775-2.162-6.327 1.063-4.225 1.446-4.658 4.119-4.658 4.737 0 6.816-1.64 6.816-5.375 0-3.549-2.727-5.625-7.389-5.625-3.808 0-5.68-7.757-2.463-10.208 4.432-3.376 4.852-3.874 4.852-5.76 0-4.531-5.544-6.44-9.881-3.403-2.238 1.568-2.457 1.5-5.749-1.793-3.405-3.405-3.415-3.439-1.8-6.676 1.935-3.879 1.228-7.772-1.572-8.661-3.075-.976-5.868.348-7.535 3.572-.833 1.611-1.615 2.922-1.739 2.914-.123-.009-2.249-.618-4.724-1.355-4.231-1.259-4.519-1.571-4.825-5.222-.531-6.364-4.819-8.668-8.52-4.579m139.673 4.693c-12.21 9.625-3.394 29.141 11.792 26.104 11.86-2.372 15.486-17.859 6.01-25.671-4.877-4.019-13.001-4.217-17.802-.433m5.718 8.923c-2.845 3.427 1.078 9.221 4.704 6.948 3.568-2.237 2.285-8.393-1.75-8.393-.965 0-2.295.65-2.954 1.445m-151.367 7.098c-19.947 7.318-23.96 34.44-7.105 48.021C154.271 366.823 181 353.781 181 330.888c0-19.038-19.575-32.856-37.321-26.345m2.821 11.03c-7.168 3.727-10.067 9.178-9.273 17.436 1.791 18.636 29.997 18.654 32.496.02 1.711-12.754-12.183-23.198-23.223-17.456m5.5 9.203c-5.012 1.62-6.478 6.746-2.939 10.285 4.544 4.544 13.052-1.247 9.918-6.752-1.595-2.803-4.572-4.31-6.979-3.533" />
</svg>