<svg xmlns="http://www.w3.org/2000/svg" viewBox="0 0 390 392" class="svg-icon">
    <path fill="currentColor" fill-rule="evenodd"
        d="M105.251 1.047C66.089 8.032 45.041 51.74 63.72 87.287c6.677 12.706 14.015 19.225 26.084 23.174 3.893 1.274 5.22 2.175 4.987 3.387-.289 1.503-4.43 1.674-45.805 1.895-44.965.24-45.506.268-47.236 2.361C.176 120.009 0 123.021 0 148.064c0 34.422-.176 33.889 11.25 33.922L16 182v205.887l2.223 1.556c3.394 2.378 350.16 2.378 353.554 0l2.223-1.556V182h5.599c4.974 0 5.922-.347 8.5-3.106l2.901-3.106v-28.56c0-15.709-.281-28.28-.624-27.937s-1.356-.26-2.25-1.34c-1.567-1.893-3.277-1.974-47.112-2.208-41.375-.221-45.516-.392-45.805-1.895-.234-1.214 1.087-2.104 4.987-3.362C320.19 104.036 333 83.82 333 58.716c0-46.839-51.84-74.25-91.084-48.16-10.1 6.714-18.046 18.249-28.28 41.05-5.257 11.713-15.761 39.032-17.165 44.644-1.073 4.291-1.733 3.428-5.348-7.005-10.752-31.028-22.195-55.393-32.38-68.945C148.24 6.324 124.192-2.331 105.251 1.047M107 13.098C74.321 18.76 58.075 57.675 76.685 85.712c6.64 10.004 12.601 13.176 32.315 17.192 13.886 2.83 70.975 11.096 76.629 11.096 2.847 0-16.074-50.464-26.315-70.181C146.638 19.411 129.306 9.233 107 13.098m161.5-.399c-18.21 2.421-29.649 13.208-41.973 39.58C216.642 73.433 202.092 114 204.39 114c2.907 0 54.835-7.155 65.61-9.04 32.032-5.604 38.304-8.875 45.991-23.985 17.168-33.747-10.29-73.223-47.491-68.276M.441 148.5c.001 15.95.139 22.335.307 14.189s.168-21.196-.001-29C.579 125.885.441 132.55.441 148.5m11.789.25.27 20.75h365l.27-20.75.271-20.75H11.959zM28 191.507v9.506l72.75-.256 72.75-.257.288-9.25.287-9.25H28zM186 280.5V379h18V182h-18zm30.212-89.25.288 9.25 72.75.257 72.75.256V182H215.925zM28 280.507v67.506l72.75-.256 72.75-.257.257-67.25.257-67.25H28zm188.243-.257.257 67.25 72.75.257 72.75.256V213H215.986zM28 369.5v9.513l72.75-.256 72.75-.257v-18l-72.75-.257-72.75-.256zm188.212-.25.288 9.25 72.75.257 72.75.256V360H215.925z" />
</svg>