<svg xmlns="http://www.w3.org/2000/svg" viewBox="0 0 388 392" class="svg-icon">
    <path fill="currentColor" fill-rule="evenodd"
        d="M12.204 20.128c-4.82 2.386-8.78 7.023-10.777 12.62-1.756 4.919-2.072 173.804-.339 180.688 3.063 12.163 9.888 15.513 31.662 15.542L49 229v-11H34.547C10.438 218 12 221.219 12 171.546v-38.552l152.25.253 152.25.253.288 9.25.287 9.25H328V93.065c0-62.492.065-61.644-5.174-67.611-7.076-8.058 6.838-7.407-158.826-7.431l-147.5-.021zm6.184 9.852C12.608 32.316 12 34.708 12 55.135V74h305l-.015-18.25c-.016-20.333-.47-22.226-5.999-24.998-3.272-1.642-12.292-1.745-146.986-1.687-78.925.034-144.45.446-145.612.915M12 103.497V122h305.045l-.272-18.25-.273-18.25-152.25-.253L12 84.994zm59.056 61.755c-2.343 1.239-5.676 4.208-7.408 6.598l-3.148 4.346-.29 89.652c-.159 49.309-.036 91.063.274 92.788.31 1.726 2.361 5.179 4.558 7.675 7.394 8.4-6.12 7.772 160.531 7.463l148.073-.274 4.122-2.728c2.267-1.5 5.384-4.875 6.927-7.5l2.805-4.772.311-87c.338-94.256.328-94.449-5.019-100.936-6.74-8.177 7.192-7.517-159.385-7.542L75.315 163zm6.332 9.728c-1.161.469-3.074 2.077-4.25 3.572L71 181.27l.015 86.615c.016 94.622-.267 90.216 5.999 93.369 3.282 1.651 11.956 1.739 148.318 1.5l144.832-.254 2.918-3.266 2.918-3.266v-86.937c0-93.237.13-90.878-5.145-93.606-3.158-1.633-289.452-2.067-293.467-.445M91 268v27h79v-54H91zm93.674-26.341c-.371.371-.674 3.074-.674 6.008V253h127.1l-.3-5.75-.3-5.75-62.576-.257c-34.417-.142-62.879.045-63.25.416M327 247v6h23v-12h-23zm-224 21.516v15.516l27.75-.266 27.75-.266.276-15.25.276-15.25H103zm17-.016v7.5h21v-15h-21zm64.667-2.833c-.367.366-.667 3.066-.667 6V277h87v-12h-42.833c-23.559 0-43.134.3-43.5.667m116.792 35.7c-28.969 13.49-10.141 57.871 19.997 47.136 3.467-1.235 4.555-1.213 8.807.178 23.89 7.814 43.655-19.9 28.429-39.863-6.556-8.595-19.566-12.253-29.477-8.287-3.434 1.374-4.199 1.374-7.488 0-5.529-2.311-14.286-1.95-20.268.836m4.205 10.745c-10.821 5.709-8.719 22.642 3.209 25.854 16.554 4.457 24.32-19.973 8.456-26.602-4.39-1.834-7.1-1.66-11.665.748m29.942-1.283c-.282.456.141 3.003.94 5.659 1.87 6.213 1.836 10.316-.132 16.115-1.848 5.442-.911 6.776 4.086 5.818 9.748-1.868 14.892-12.87 9.939-21.256-2.793-4.728-13.105-9.132-14.833-6.336" />
</svg>