<svg xmlns="http://www.w3.org/2000/svg" width="70" height="70" fill="currentColor" viewBox="0 0 70 70" class="svg-icon">
    <path
        d="M63.094 22.094h-3.051a11.01 11.01 0 0 0-9.95-9.95v-7.05a1 1 0 0 0-1-1h-44a1 1 0 0 0-1 1v60a1 1 0 0 0 1 1h58a3 3 0 0 0 3-3v-38a3 3 0 0 0-3-3m-14 12a11 11 0 0 0 9.786-6h1.214v8h-22v-8h1.214a11 11 0 0 0 9.786 6m9-11a9 9 0 1 1-9-9 9.01 9.01 0 0 1 9 9m-52-17h42v6.05a11.01 11.01 0 0 0-9.95 9.95h-3.05a3 3 0 0 0-2.816 2h-8.184v2h8v10h-8v2h8v2h-8v2h8v10h-8v2h8v2h-8v2h8v5c.003.341.065.68.184 1H6.094zm58 57a1 1 0 0 1-1 1h-28a1 1 0 0 1-1-1v-38a1 1 0 0 1 1-1h3.05q.095 1.017.376 2h-1.426a1 1 0 0 0-1 1v10a1 1 0 0 0 1 1h24a1 1 0 0 0 1-1v-10a1 1 0 0 0-1-1h-1.426q.28-.983.375-2h3.05a1 1 0 0 1 1 1z" />
    <path
        d="M41.094 40.094h-4a1 1 0 0 0-1 1v4a1 1 0 0 0 1 1h4a1 1 0 0 0 1-1v-4a1 1 0 0 0-1-1m-1 4h-2v-2h2zM61.094 40.094h-8a1 1 0 0 0-1 1v4a1 1 0 0 0 1 1h8a1 1 0 0 0 1-1v-4a1 1 0 0 0-1-1m-1 4h-6v-2h6zM41.094 48.094h-4a1 1 0 0 0-1 1v4a1 1 0 0 0 1 1h4a1 1 0 0 0 1-1v-4a1 1 0 0 0-1-1m-1 4h-2v-2h2zM41.094 56.094h-4a1 1 0 0 0-1 1v4a1 1 0 0 0 1 1h4a1 1 0 0 0 1-1v-4a1 1 0 0 0-1-1m-1 4h-2v-2h2zM49.094 40.094h-4a1 1 0 0 0-1 1v4a1 1 0 0 0 1 1h4a1 1 0 0 0 1-1v-4a1 1 0 0 0-1-1m-1 4h-2v-2h2zM49.094 48.094h-4a1 1 0 0 0-1 1v4a1 1 0 0 0 1 1h4a1 1 0 0 0 1-1v-4a1 1 0 0 0-1-1m-1 4h-2v-2h2zM49.094 56.094h-4a1 1 0 0 0-1 1v4a1 1 0 0 0 1 1h4a1 1 0 0 0 1-1v-4a1 1 0 0 0-1-1m-1 4h-2v-2h2zM61.094 48.094h-8a1 1 0 0 0-1 1v12a1 1 0 0 0 1 1h8a1 1 0 0 0 1-1v-12a1 1 0 0 0-1-1m-1 12h-6v-10h6zM15.094 16.094a7 7 0 1 0 7 7 7.01 7.01 0 0 0-7-7m0 12a5 5 0 1 1 5-5 5.006 5.006 0 0 1-5 5M24.094 20.094h9v2h-9zM14.094 14.094h26a1 1 0 0 0 1-1v-4a1 1 0 0 0-1-1h-26a1 1 0 0 0-1 1v4a1 1 0 0 0 1 1m1-4h24v2h-24z" />
    <path
        d="M14.094 23.68 12.8 22.387 11.387 23.8l2 2a1 1 0 0 0 1.414 0l4-4-1.414-1.414zM15.094 32.094a7 7 0 1 0 7 7 7.01 7.01 0 0 0-7-7m0 12a5 5 0 1 1 5-5 5.006 5.006 0 0 1-5 5" />
    <path
        d="M14.094 39.68 12.8 38.387 11.387 39.8l2 2a1 1 0 0 0 1.414 0l4-4-1.414-1.414zM15.094 48.094a7 7 0 1 0 7 7 7.01 7.01 0 0 0-7-7m0 12a5 5 0 1 1 5-5 5.006 5.006 0 0 1-5 5" />
    <path
        d="M14.094 55.68 12.8 54.387 11.387 55.8l2 2a1 1 0 0 0 1.414 0l4-4-1.414-1.414zM46.523 17.03a3.99 3.99 0 0 0-1.43 3.064h2a2 2 0 0 1 2.372-1.967 2.03 2.03 0 0 1 1.6 1.6 1.99 1.99 0 0 1-.61 1.839 6.9 6.9 0 0 0-2.361 5.028v.5h2v-.5a4.91 4.91 0 0 1 1.717-3.568 4 4 0 0 0-5.288-6zM48.094 28.094h2v2h-2z" />
</svg>