<svg xmlns="http://www.w3.org/2000/svg" width="24" height="24" fill="currentColor" viewBox="0 0 24 24" class="svg-icon">
    <path
        d="M18.462 0H5.539a2.77 2.77 0 0 0-2.77 2.77v18.46A2.77 2.77 0 0 0 5.54 24h12.923a2.77 2.77 0 0 0 2.769-2.77V2.77A2.77 2.77 0 0 0 18.46 0m.923 7.385a.925.925 0 0 1-.923.923H5.539a.925.925 0 0 1-.924-.923V2.769c0-.508.415-.923.924-.923h12.923c.508 0 .923.415.923.923zM8.308 12a.925.925 0 0 1-.923.923H5.539A.925.925 0 0 1 4.615 12v-.923c0-.509.415-.923.924-.923h1.846c.508 0 .923.414.923.923zm5.538 0a.925.925 0 0 1-.923.923h-1.846a.925.925 0 0 1-.923-.923v-.923c0-.509.414-.923.923-.923h1.846c.509 0 .923.414.923.923zm5.539 0a.925.925 0 0 1-.923.923h-1.846a.925.925 0 0 1-.924-.923v-.923c0-.509.415-.923.924-.923h1.846c.508 0 .923.414.923.923zM8.308 16.615a.925.925 0 0 1-.923.924H5.539a.925.925 0 0 1-.924-.924v-.923c0-.508.415-.923.924-.923h1.846c.508 0 .923.415.923.923zm5.538 0a.925.925 0 0 1-.923.924h-1.846a.925.925 0 0 1-.923-.924v-.923c0-.508.414-.923.923-.923h1.846c.509 0 .923.415.923.923zm5.539 0a.925.925 0 0 1-.923.924h-1.846a.925.925 0 0 1-.924-.924v-.923c0-.508.415-.923.924-.923h1.846c.508 0 .923.415.923.923zM8.308 21.231a.925.925 0 0 1-.923.923H5.539a.925.925 0 0 1-.924-.923v-.923c0-.509.415-.923.924-.923h1.846c.508 0 .923.414.923.923zm5.538 0a.924.924 0 0 1-.923.923h-1.846a.925.925 0 0 1-.923-.923v-.923c0-.509.414-.923.923-.923h1.846c.509 0 .923.414.923.923zm5.539 0a.925.925 0 0 1-.923.923h-1.846a.925.925 0 0 1-.924-.923v-.923c0-.509.415-.923.924-.923h1.846c.508 0 .923.414.923.923z" />
    <path
        d="M17.539 3.692v2.77h-1.847v-2.77zm0-.923h-1.847a.925.925 0 0 0-.923.923v2.77c0 .508.415.922.923.922h1.846a.925.925 0 0 0 .924-.923V3.692a.925.925 0 0 0-.924-.923" />
</svg>