<svg width="24" height="24" viewBox="0 0 24 24" fill="currentColor" xmlns="http://www.w3.org/2000/svg" class="svg-icon">
    <path
        d="M3.71 1.991q.522-.066.89.301a780 780 0 0 1 3.116 4.786q.153.598-.116 1.157a67 67 0 0 1-1.766 2.844 8.6 8.6 0 0 0 1.005 1.896 17.3 17.3 0 0 0 3.936 3.988q.989.713 2.135 1.145 1.278-.83 2.574-1.63.39-.231.83-.324.22-.023.44 0 .107.037.207.093a487 487 0 0 1 4.756 3.121q.246.281.254.66a1.7 1.7 0 0 1-.243.785 18.5 18.5 0 0 1-2.181 2.486 3.8 3.8 0 0 1-.924.624 6 6 0 0 1-.461.058 9.2 9.2 0 0 1-3.21-.659 19.2 19.2 0 0 1-4.316-2.45 38.3 38.3 0 0 1-7.907-8.036 19.7 19.7 0 0 1-2.054-3.7A9.3 9.3 0 0 1-.03 5.772q-.006-.343.173-.636.353-.527.785-.994Q2.024 2.987 3.34 2.119q.186-.075.37-.128" />
    <path
        d="M15.334.99q.068.856.045 1.737 2.232-.017 4.462.035 2.055.454 2.688 2.535.062.252.09.51.015 3.09.01 6.183H20.4q.005-2.895-.012-5.79-.06-.883-.88-1.123a127 127 0 0 0-4.128-.034q.01.869-.022 1.736a514 514 0 0 1-3.726-2.894z" />
</svg>