<svg width="28" height="28" viewBox="0 0 28 28" fill="currentColor" xmlns="http://www.w3.org/2000/svg" class="svg-icon">
    <path
        d="M6.078 3.488q.527-.067.899.304a787 787 0 0 1 3.15 4.83q.154.603-.117 1.166a68 68 0 0 1-1.785 2.87q.39 1.024 1.015 1.914a17.5 17.5 0 0 0 3.978 4.025q1 .718 2.159 1.155 1.29-.837 2.601-1.645a2.8 2.8 0 0 1 .84-.327q.222-.024.444 0 .108.038.21.093 2.412 1.562 4.806 3.15.248.285.257.665-.025.428-.245.794-.987 1.35-2.205 2.508-.42.384-.933.63-.232.038-.467.058a9.4 9.4 0 0 1-3.243-.665 19.4 19.4 0 0 1-4.364-2.473 38.7 38.7 0 0 1-7.991-8.108 20 20 0 0 1-2.077-3.734 9.3 9.3 0 0 1-.712-3.395q-.005-.345.175-.641.357-.533.794-1.004a13.8 13.8 0 0 1 2.438-2.041q.188-.077.373-.129" />
    <path
        d="M16.275 3.488q.07.863.047 1.75 2.334-.015 4.666.035 2.15.459 2.812 2.555.065.254.093.514.018 3.114.012 6.23h-2.333q.006-2.918-.012-5.834-.061-.89-.922-1.131a138 138 0 0 0-4.316-.035q.011.875-.024 1.75a535 535 0 0 1-3.896-2.917z" />
</svg>