<svg width="70" height="70" viewBox="0 0 70 70" fill="currentColor" xmlns="http://www.w3.org/2000/svg" class="svg-icon">
    <path
        d="M22.58 48.01a4.525 4.525 0 0 0 0 9.05 4.525 4.525 0 0 0 0-9.05m0 6.788a2.263 2.263 0 0 1 0-4.525 2.263 2.263 0 0 1 0 4.525M49.677 48.01a4.525 4.525 0 0 0 0 9.05 4.525 4.525 0 0 0 0-9.05m0 6.788a2.263 2.263 0 0 1 0-4.525 2.263 2.263 0 0 1 0 4.525" />
    <path
        d="M67.742 36.905v-9.072a5.66 5.66 0 0 0-.883-3.037L60.327 14.51a3.37 3.37 0 0 0-2.857-1.572h-7.793V8.414h-37.01l-1.694 6.788h3.491l-.393 2.263H4.516v2.262h9.163l-.787 4.525H4.516v2.263H12.5l-.785 4.525H4.516v2.263h6.806l-.982 5.657H8.036l-1.13 9.05h-.132a2.263 2.263 0 0 0-2.258 2.263v4.525a2.263 2.263 0 0 0 2.258 2.262h7.996c1.565 2.701 4.475 4.526 7.81 4.526s6.247-1.825 7.811-4.526h11.477c1.565 2.701 4.475 4.526 7.81 4.526s6.247-1.825 7.811-4.526h8.91l3.577-16.732.024-.237a3.39 3.39 0 0 0-2.258-3.186M57.47 15.202c.387 0 .744.196.952.524l6.532 10.286c.347.544.53 1.174.53 1.821v8.864H61.17l-.452 2.262H42.903V16.333c0-.624.507-1.131 1.13-1.131zm-43.04-4.525h32.99v2.262H13.864zm2.326 4.525h24.097a3.4 3.4 0 0 0-.208 1.131V38.96H12.633zm-6.727 26.02h50.239l-1.355 6.788h-1.426c-1.565-2.7-4.475-4.525-7.81-4.525s-6.247 1.824-7.811 4.525H30.39c-1.564-2.7-4.475-4.525-7.81-4.525s-6.246 1.824-7.811 4.525H9.181zM6.774 54.798v-4.525h7.071a9 9 0 0 0-.297 2.262c0 .783.11 1.538.297 2.263zm15.807 4.525c-3.736 0-6.775-3.044-6.775-6.788 0-3.743 3.039-6.788 6.775-6.788s6.774 3.045 6.774 6.788-3.038 6.788-6.774 6.788m8.735-4.525c.187-.725.297-1.48.297-2.263s-.11-1.537-.297-2.262h9.627a9 9 0 0 0-.298 2.262c0 .783.11 1.538.297 2.263zm18.361 4.525c-3.736 0-6.774-3.044-6.774-6.788 0-3.743 3.038-6.788 6.774-6.788s6.775 3.045 6.775 6.788-3.038 6.788-6.775 6.788m14.893-4.525h-6.159c.189-.725.299-1.48.299-2.263s-.11-1.537-.297-2.262h2.351l2.258-11.314h3.59c.59 0 1.076.454 1.126 1.032z" />
    <path
        d="m63.226 27.322-6.149-9.857H45.161v14.707h18.065zm-2.258 2.587H47.419V19.728h8.407l5.142 8.243zM45.161 34.435h6.774v2.262h-6.774zM0 17.465h2.258v2.262H0zM0 24.252h2.258v2.263H0zM0 31.04h2.258v2.263H0z" />
</svg>