<svg width="65" height="65" viewBox="0 0 65 65" fill="currentColor" xmlns="http://www.w3.org/2000/svg" class="svg-icon">
    <path
        d="M40.05 23.97a1.03 1.03 0 0 0-.73-.313 1 1 0 0 0-.73.313L24.138 38.905a1.07 1.07 0 0 0-.315.758 1.1 1.1 0 0 0 .303.764 1.005 1.005 0 0 0 1.472-.013L40.05 25.478a1.07 1.07 0 0 0 .302-.754 1.1 1.1 0 0 0-.302-.754M26.933 31.125c.816 0 1.615-.25 2.294-.719a4.24 4.24 0 0 0 1.52-1.915 4.4 4.4 0 0 0 .235-2.465 4.3 4.3 0 0 0-1.13-2.185 4.1 4.1 0 0 0-2.114-1.168 4 4 0 0 0-2.385.243c-.755.323-1.4.87-1.853 1.571a4.37 4.37 0 0 0-.696 2.371 4.35 4.35 0 0 0 1.21 3.016c.774.8 1.824 1.25 2.919 1.251m0-6.4c.408 0 .807.125 1.147.359s.604.568.76.957a2.2 2.2 0 0 1 .118 1.233c-.08.414-.277.794-.565 1.093a2.05 2.05 0 0 1-1.058.584c-.4.082-.815.04-1.192-.122a2.1 2.1 0 0 1-.927-.786 2.185 2.185 0 0 1 .258-2.693c.387-.4.911-.625 1.459-.626M37.255 33.259c-.817 0-1.615.25-2.294.719a4.24 4.24 0 0 0-1.52 1.915 4.4 4.4 0 0 0-.236 2.465c.16.828.553 1.589 1.13 2.185a4.1 4.1 0 0 0 2.114 1.168c.801.165 1.632.08 2.386-.243s1.4-.87 1.853-1.571a4.37 4.37 0 0 0 .696-2.371 4.35 4.35 0 0 0-1.21-3.016 4.07 4.07 0 0 0-2.919-1.251m0 6.4c-.408 0-.808-.124-1.147-.359a2.1 2.1 0 0 1-.76-.957 2.2 2.2 0 0 1-.118-1.233c.08-.414.276-.794.565-1.093a2.04 2.04 0 0 1 1.057-.584c.4-.082.816-.04 1.193.122.377.161.7.435.927.786a2.185 2.185 0 0 1-.258 2.693c-.387.4-.912.625-1.459.626" />
    <path
        d="M61.218 25.811a6.26 6.26 0 0 1-1.832-2.839 6.44 6.44 0 0 1-.113-3.41 8.6 8.6 0 0 0 .095-3.596 8.45 8.45 0 0 0-1.385-3.3 8.1 8.1 0 0 0-2.605-2.386 7.85 7.85 0 0 0-3.337-1.024 5.87 5.87 0 0 1-3.085-1.174 6.16 6.16 0 0 1-2.02-2.681 8.3 8.3 0 0 0-1.957-2.97A7.95 7.95 0 0 0 41.986.598a7.75 7.75 0 0 0-3.461-.344 7.8 7.8 0 0 0-3.276 1.206 5.8 5.8 0 0 1-3.156.936 5.8 5.8 0 0 1-3.156-.937A7.8 7.8 0 0 0 25.662.255 7.75 7.75 0 0 0 22.2.6a7.95 7.95 0 0 0-2.992 1.83 8.3 8.3 0 0 0-1.957 2.97 6.16 6.16 0 0 1-2.025 2.685 5.87 5.87 0 0 1-3.093 1.172 7.85 7.85 0 0 0-3.336 1.03 8.1 8.1 0 0 0-2.601 2.39 8.45 8.45 0 0 0-1.38 3.304 8.6 8.6 0 0 0 .102 3.597 6.44 6.44 0 0 1-.123 3.412 6.26 6.26 0 0 1-1.841 2.835 8.3 8.3 0 0 0-2.113 2.861 8.6 8.6 0 0 0-.748 3.516 8.6 8.6 0 0 0 .756 3.514 8.3 8.3 0 0 0 2.12 2.857A6.26 6.26 0 0 1 4.8 41.412a6.44 6.44 0 0 1 .113 3.41 8.6 8.6 0 0 0-.095 3.596 8.45 8.45 0 0 0 1.385 3.3 8.1 8.1 0 0 0 2.605 2.386 7.85 7.85 0 0 0 3.337 1.024 5.87 5.87 0 0 1 3.086 1.174 6.16 6.16 0 0 1 2.02 2.68 8.3 8.3 0 0 0 1.957 2.972 7.94 7.94 0 0 0 2.992 1.83 7.75 7.75 0 0 0 3.462.345 7.8 7.8 0 0 0 3.276-1.207 5.8 5.8 0 0 1 3.155-.935c1.115 0 2.209.324 3.155.935l.551-.901-.55.902a7.8 7.8 0 0 0 3.276 1.206 7.75 7.75 0 0 0 3.46-.345 7.95 7.95 0 0 0 2.993-1.83 8.3 8.3 0 0 0 1.957-2.97 6.16 6.16 0 0 1 2.025-2.685 5.87 5.87 0 0 1 3.092-1.172 7.85 7.85 0 0 0 3.336-1.03 8.1 8.1 0 0 0 2.602-2.39 8.45 8.45 0 0 0 1.38-3.304 8.6 8.6 0 0 0-.102-3.597 6.44 6.44 0 0 1 .123-3.412 6.26 6.26 0 0 1 1.84-2.835 8.3 8.3 0 0 0 2.114-2.861 8.6 8.6 0 0 0 .748-3.516 8.6 8.6 0 0 0-.756-3.514 8.3 8.3 0 0 0-2.12-2.857m-1.33 11.13a8.4 8.4 0 0 0-2.464 3.813 8.66 8.66 0 0 0-.155 4.583c.212.874.237 1.787.072 2.672a6.3 6.3 0 0 1-1.028 2.454 6.04 6.04 0 0 1-1.935 1.774 5.8 5.8 0 0 1-2.48.762 7.9 7.9 0 0 0-4.157 1.58 8.3 8.3 0 0 0-2.721 3.61 6.14 6.14 0 0 1-1.451 2.206 5.9 5.9 0 0 1-2.22 1.36 5.75 5.75 0 0 1-2.57.257 5.8 5.8 0 0 1-2.43-.895 7.84 7.84 0 0 0-4.256-1.262c-1.505 0-2.98.438-4.256 1.262a5.8 5.8 0 0 1-2.43.895c-.865.11-1.741.023-2.569-.257a5.9 5.9 0 0 1-2.22-1.36 6.1 6.1 0 0 1-1.45-2.205 8.3 8.3 0 0 0-2.727-3.614A7.9 7.9 0 0 0 12.277 53a5.8 5.8 0 0 1-2.464-.753 6 6 0 0 1-1.924-1.762 6.3 6.3 0 0 1-1.04-2.47 6.4 6.4 0 0 1 .074-2.693 8.66 8.66 0 0 0-.165-4.584 8.4 8.4 0 0 0-2.473-3.809 6.2 6.2 0 0 1-1.571-2.13 6.38 6.38 0 0 1 .008-5.23A6.2 6.2 0 0 1 4.3 27.443c1.148-1.01 2-2.33 2.463-3.813a8.66 8.66 0 0 0 .156-4.582 6.4 6.4 0 0 1-.072-2.673 6.3 6.3 0 0 1 1.027-2.453 6.04 6.04 0 0 1 1.936-1.775 5.8 5.8 0 0 1 2.48-.762 7.9 7.9 0 0 0 4.157-1.58 8.3 8.3 0 0 0 2.72-3.611c.321-.837.816-1.59 1.45-2.207a5.9 5.9 0 0 1 2.221-1.361 5.74 5.74 0 0 1 2.57-.256c.864.11 1.694.417 2.43.897a7.83 7.83 0 0 0 4.257 1.262c1.505 0 2.98-.437 4.255-1.262a5.8 5.8 0 0 1 2.431-.895 5.75 5.75 0 0 1 2.568.257c.828.28 1.586.743 2.22 1.36a6.1 6.1 0 0 1 1.45 2.205 8.3 8.3 0 0 0 2.728 3.614 7.9 7.9 0 0 0 4.163 1.577 5.8 5.8 0 0 1 2.465.753 6 6 0 0 1 1.923 1.761 6.3 6.3 0 0 1 1.04 2.471 6.4 6.4 0 0 1-.073 2.693 8.66 8.66 0 0 0 .165 4.584 8.4 8.4 0 0 0 2.473 3.809 6.2 6.2 0 0 1 1.571 2.13 6.38 6.38 0 0 1-.008 5.23 6.2 6.2 0 0 1-1.578 2.125" />
    <path
        d="M32.093 10.856a20.17 20.17 0 0 0-11.47 3.596c-3.395 2.344-6.04 5.676-7.603 9.575a22 22 0 0 0-1.175 12.328c.797 4.138 2.763 7.94 5.65 10.924s6.566 5.016 10.57 5.84c4.006.822 8.156.4 11.929-1.215s6.997-4.35 9.265-7.858a21.85 21.85 0 0 0 3.48-11.854c-.007-5.657-2.184-11.08-6.054-15.08s-9.118-6.25-14.592-6.256m0 40.538a18.16 18.16 0 0 1-10.323-3.236c-3.055-2.11-5.436-5.109-6.843-8.617a19.8 19.8 0 0 1-1.057-11.095c.717-3.725 2.486-7.147 5.085-9.832s5.91-4.514 9.514-5.256c3.604-.74 7.34-.36 10.735 1.093 3.395 1.454 6.297 3.915 8.339 7.073a19.66 19.66 0 0 1 3.131 10.668c-.005 5.091-1.965 9.972-5.448 13.572s-8.206 5.625-13.133 5.63" />
</svg>