<svg width="70" height="70" viewBox="0 0 70 70" fill="currentColor" xmlns="http://www.w3.org/2000/svg" class="svg-icon">
    <path
        d="M43.477 4.824H4v60h48.87v-50.69zm.64 3.702 5.018 4.972h-5.017zm6.565 54.129H6.188V6.992H41.93v8.675h8.753zM61.259 12.486l-4.741 11.277V64.1H66V23.763zm2.553 49.446h-5.106v-5.06h5.106zm0-7.23h-5.106V27.957h5.106zm0-28.915h-5.106v-1.59l2.553-6.073 2.553 6.073z" />
    <path
        d="M46.67 53.257H28.435v2.169H46.67zM43.527 47.89c-.59.748-.864 1.03-1.42 1.03-.554 0-.83-.282-1.419-1.03-.62-.785-1.47-1.862-3.143-1.862s-2.521 1.077-3.14 1.863c-.588.747-.863 1.029-1.416 1.029s-.826-.282-1.414-1.029c-.62-.786-1.467-1.863-3.14-1.863v2.169c.553 0 .827.282 1.415 1.028.619.787 1.467 1.864 3.14 1.864 1.672 0 2.52-1.077 3.14-1.863.587-.747.862-1.029 1.414-1.029.556 0 .83.282 1.42 1.03.62.786 1.47 1.862 3.143 1.862 1.674 0 2.524-1.076 3.144-1.862.589-.748.864-1.03 1.42-1.03v-2.169c-1.675 0-2.524 1.077-3.144 1.863M32.082 57.594h-3.647v2.169h3.647zM37.918 57.594H34.27v2.169h3.648zM46.67 57.594h-3.647v2.169h3.647zM24.789 10.606H10.2v2.17H24.79zM29.894 22.173H10.2v2.169h19.694zM19.683 46.028H10.2v2.169h9.483zM19.683 51.812H10.2v2.168h9.483zM46.67 27.957H10.2v2.168h36.47zM46.67 33.74H10.2v2.168h36.47zM46.67 39.523H13.848v2.168h32.824zM13.847 14.944H10.2v2.17h3.647zM19.682 14.944h-3.647v2.17h3.647z" />
</svg>