<svg width="60" height="60" viewBox="0 0 60 60" fill="none" xmlns="http://www.w3.org/2000/svg">
<g clip-path="url(#clip0_6003_6944)">
<path d="M25.7663 15.4839H9.55658C8.48771 15.4839 7.62109 14.6173 7.62109 13.5484V8.83064C7.62109 8.18806 7.93997 7.58758 8.4721 7.22758L11.734 5.02101V1.93548C11.734 0.866613 12.6006 0 13.6695 0H21.6534C22.7222 0 23.5888 0.866613 23.5888 1.93548V5.02089L26.8507 7.22746C27.3829 7.58746 27.7017 8.18806 27.7017 8.83052V13.5483C27.7017 14.6173 26.8351 15.4839 25.7663 15.4839Z" fill="#DC3545"/>
<path d="M52.2048 56.1291H50.8075V46.9355C50.8075 46.4011 50.3742 45.9678 49.8397 45.9678H33.8115C33.2771 45.9678 32.8438 46.4011 32.8438 46.9355V59.0323C32.8438 59.5667 33.2771 60 33.8115 60H52.2591C53.3592 60 54.2442 59.0835 54.1924 57.9719C54.1439 56.9306 53.2473 56.1291 52.2048 56.1291ZM42.3397 52.9839H39.9204C38.851 52.9839 37.9849 52.1178 37.9849 51.0484C37.9849 49.9791 38.851 49.1129 39.9204 49.1129H42.3397C43.4091 49.1129 44.2752 49.9791 44.2752 51.0484C44.2752 52.1178 43.4091 52.9839 42.3397 52.9839Z" fill="#DC3545"/>
<path d="M32.8425 41.129C32.8425 41.6637 33.2756 42.0967 33.8103 42.0967H49.8385C50.3732 42.0967 50.8062 41.6637 50.8062 41.129V31.9355H51.7195C52.7623 31.9355 53.6586 31.1334 53.707 30.0931C53.759 28.9814 52.8736 28.0645 51.774 28.0645H24.9491C25.3228 27.011 25.282 26.2431 25.282 25.5242H31.4514C32.5203 25.5242 33.3869 24.6576 33.3869 23.5887C33.3869 22.5198 32.5203 21.6532 31.4514 21.6532C30.5242 21.6532 12.7349 21.6532 11.9756 21.6532C10.9067 21.6532 10.0401 22.5198 10.0401 23.5887C10.0401 26.2519 9.95674 26.8909 10.373 28.0645H1.98968C0.946938 28.0645 0.0505673 28.8665 0.00218024 29.9068C-0.0498359 31.0185 0.835648 31.9355 1.93525 31.9355H2.90299V58.0645C2.90299 59.1338 3.76912 60 4.83847 60H28.0038C28.5385 60 28.9715 59.5669 28.9715 59.0322V36.3447C28.9715 35.302 29.7736 34.4056 30.8139 34.3572C31.9256 34.3052 32.8425 35.1907 32.8425 36.2903V41.129ZM39.9191 35.0806H42.3385C43.4078 35.0806 44.274 35.9467 44.274 37.0161C44.274 38.0855 43.4078 38.9516 42.3385 38.9516H39.9191C38.8498 38.9516 37.9836 38.0855 37.9836 37.0161C37.9836 35.9467 38.8498 35.0806 39.9191 35.0806ZM12.0965 34.8387H20.8062C21.8756 34.8387 22.7417 35.7048 22.7417 36.7742C22.7417 37.8435 21.8756 38.7097 20.8062 38.7097H12.0965C11.0272 38.7097 10.1611 37.8435 10.1611 36.7742C10.1611 35.7048 11.0272 34.8387 12.0965 34.8387ZM24.6772 53.4677C24.6772 54.5371 23.8111 55.4032 22.7417 55.4032H10.1611C9.0917 55.4032 8.22557 54.5371 8.22557 53.4677V44.5161C8.22557 43.4467 9.0917 42.5806 10.1611 42.5806H22.7417C23.8111 42.5806 24.6772 43.4467 24.6772 44.5161V53.4677Z" fill="#DC3545"/>
<path d="M56.3585 58.9767C55.6221 57.564 56.765 55.9807 58.2552 56.1388C59.2993 56.2388 60.0942 57.178 59.9911 58.2545C59.8091 60.1381 57.2776 60.6676 56.3585 58.9767Z" fill="#DC3545"/>
</g>
<defs>
<clipPath id="clip0_6003_6944">
<rect width="60" height="60" fill="white"/>
</clipPath>
</defs>
</svg>
