<svg width="60" height="60" viewBox="0 0 60 60" fill="currentColor" xmlns="http://www.w3.org/2000/svg" class="svg-icon">
    <circle cx="30" cy="30" r="30" fill="currentColor" />
    <path
        d="M17.012 40.475a2.816 2.816 0 0 0 2.8 2.525h24.375A2.813 2.813 0 0 0 47 40.188v-5.626a2.813 2.813 0 0 0-2.812-2.812h-2.813v4.688a.94.94 0 0 1-.937.937.94.94 0 0 1-.938-.937V31.75h-3.75v4.688a.94.94 0 0 1-.937.937.94.94 0 0 1-.938-.937V31.75h-3.75v4.688a.94.94 0 0 1-.937.937.94.94 0 0 1-.938-.937V31.75h-4.687a.94.94 0 0 1-.938-.937.94.94 0 0 1 .938-.938h4.687v-3.75h-4.687a.94.94 0 0 1-.938-.937.94.94 0 0 1 .938-.938h4.687V20.5h-4.687a.94.94 0 0 1-.938-.937.94.94 0 0 1 .938-.938h4.687v-2.812A2.813 2.813 0 0 0 25.438 13h-5.625A2.813 2.813 0 0 0 17 15.813v24.374q.002.149.012.288"
        fill="#fff" />
</svg>