<svg width="60" height="60" viewBox="0 0 60 60" fill="none" xmlns="http://www.w3.org/2000/svg" class="svg-icon">
    <circle cx="30" cy="30" r="30" fill="currentColor" />
    <path
        d="M29.315 13.358a2.15 2.15 0 0 1 2.37 0l1.159.762c.39.254.846.377 1.308.351l1.387-.084a2.15 2.15 0 0 1 2.05 1.185l.626 1.243c.208.417.547.749.957.957l1.256.632a2.15 2.15 0 0 1 1.185 2.05l-.084 1.387a2.16 2.16 0 0 0 .351 1.309l.768 1.159a2.15 2.15 0 0 1 0 2.37l-.768 1.165c-.254.39-.377.846-.351 1.308l.084 1.387a2.15 2.15 0 0 1-1.185 2.05l-1.243.626a2.16 2.16 0 0 0-.957.957l-.632 1.256a2.15 2.15 0 0 1-2.05 1.185l-1.387-.084a2.16 2.16 0 0 0-1.309.351l-1.159.768a2.15 2.15 0 0 1-2.37 0l-1.165-.768a2.17 2.17 0 0 0-1.308-.351l-1.387.084a2.15 2.15 0 0 1-2.05-1.185l-.626-1.243a2.16 2.16 0 0 0-.957-.957l-1.256-.632a2.15 2.15 0 0 1-1.185-2.05l.084-1.387a2.16 2.16 0 0 0-.351-1.309l-.762-1.165a2.15 2.15 0 0 1 0-2.37l.762-1.159c.254-.39.377-.846.351-1.308l-.084-1.387a2.15 2.15 0 0 1 1.185-2.05l1.243-.626c.417-.215.755-.553.964-.97l.625-1.243a2.15 2.15 0 0 1 2.05-1.185l1.387.084a2.16 2.16 0 0 0 1.309-.351zM35.708 25.5a5.208 5.208 0 1 0-10.417 0 5.208 5.208 0 0 0 10.417 0M18.085 41.763l2.806-6.673a.05.05 0 0 1 .026.026l.625 1.243a4.25 4.25 0 0 0 4.036 2.331l1.387-.084c.013 0 .032 0 .045.012l1.16.769a4.4 4.4 0 0 0 1.047.501l-2.447 5.814a1.03 1.03 0 0 1-.866.631 1.03 1.03 0 0 1-.964-.468l-2.096-3.21-3.653.54a1.06 1.06 0 0 1-.976-.39 1.04 1.04 0 0 1-.137-1.042zm16.145 3.932-2.447-5.807c.364-.117.716-.28 1.048-.501l1.158-.769c.014-.006.027-.013.046-.013l1.387.085a4.25 4.25 0 0 0 4.036-2.33l.625-1.244a.05.05 0 0 1 .026-.026l2.813 6.673c.143.345.091.742-.137 1.042s-.605.449-.976.39l-3.653-.54-2.096 3.203a1.041 1.041 0 0 1-1.83-.163"
        fill="#fff" />
</svg>