<svg width="28" height="28" viewBox="0 0 28 28" fill="none" xmlns="http://www.w3.org/2000/svg">
<g clip-path="url(#clip0_6003_6908)">
<path d="M15.5568 4.24264C16.3378 3.46159 16.3378 2.19526 15.5568 1.41421C14.7757 0.633164 13.5094 0.633165 12.7284 1.41421L1.41466 12.7279C0.633607 13.509 0.633607 14.7753 1.41466 15.5563C2.1957 16.3374 3.46203 16.3374 4.24308 15.5563L15.5568 4.24264Z" fill="#DC3545"/>
<path d="M12.7281 26.87C13.5091 27.6511 14.7754 27.6511 15.5565 26.87C16.3375 26.089 16.3375 24.8226 15.5565 24.0416L4.24278 12.7279C3.46173 11.9468 2.1954 11.9468 1.41435 12.7279C0.633306 13.5089 0.633305 14.7753 1.41435 15.5563L12.7281 26.87Z" fill="#DC3545"/>
</g>
<defs>
<clipPath id="clip0_6003_6908">
<rect width="28" height="28" fill="white"/>
</clipPath>
</defs>
</svg>
