<svg xmlns="http://www.w3.org/2000/svg" width="34" height="40" fill="currentColor" viewBox="0 0 34 40" class="svg-icon">
    <path
        d="M30.024 16c-.638 0-1.262.191-1.79.55a3.183 3.183 0 0 0-4.8-1.6 3.158 3.158 0 0 0-4.61-1.705V3.2a3.2 3.2 0 1 0-6.4 0v22.357a.2.2 0 0 1-.13.195.194.194 0 0 1-.231-.047l-2.55-2.548a5.62 5.62 0 0 0-5.788-1.367A2.37 2.37 0 0 0 2.5 25.357l5.259 7.886a26 26 0 0 0 2.754 3.474A10.79 10.79 0 0 0 18.34 40h4a10.925 10.925 0 0 0 10.192-6.901c.462-1.152.699-2.382.697-3.624V19.2a3.2 3.2 0 0 0-3.205-3.2m1.6 13.475a8.1 8.1 0 0 1-.582 3.029 9.33 9.33 0 0 1-8.707 5.896h-4a9.2 9.2 0 0 1-6.667-2.783 24.5 24.5 0 0 1-2.583-3.26L3.831 24.47a.774.774 0 0 1 .394-1.161 4.04 4.04 0 0 1 4.16.979l2.55 2.549a1.81 1.81 0 0 0 3.093-1.28V3.2a1.6 1.6 0 0 1 3.2 0v14.4a.8.8 0 0 0 1.6 0V16a1.6 1.6 0 0 1 3.2 0v2.4a.8.8 0 0 0 1.6 0v-.8a1.6 1.6 0 1 1 3.2 0V20a.8.8 0 0 0 1.6 0v-.8a1.6 1.6 0 0 1 3.2 0z" />
    <path
        d="M22.101 6.4h6.069l-1.835 1.833a.801.801 0 0 0 1.133 1.133l3.2-3.2a.8.8 0 0 0 0-1.133l-3.2-3.2a.8.8 0 1 0-1.133 1.133L28.17 4.8h-6.069a.8.8 0 1 0 0 1.6M4.501 9.6a.8.8 0 0 0 .567-1.367L3.233 6.4H9.3a.8.8 0 1 0 0-1.6H3.233l1.835-1.834a.801.801 0 1 0-1.133-1.133l-3.2 3.2a.8.8 0 0 0 0 1.133l3.2 3.2a.8.8 0 0 0 .566.234" />
</svg>