<svg width="179" height="71" viewBox="0 0 179 71" fill="none" xmlns="http://www.w3.org/2000/svg">
<g clip-path="url(#clip0_6002_8074)">
<path d="M29.472 23.4032H15.964C15.0733 23.4032 14.3511 22.681 14.3511 21.7903V17.8589C14.3511 17.3234 14.6168 16.823 15.0602 16.523L17.7785 14.6842V12.1129C17.7785 11.2222 18.5007 10.5 19.3914 10.5H26.0446C26.9353 10.5 27.6575 11.2222 27.6575 12.1129V14.6841L30.3758 16.5229C30.8192 16.8229 31.0849 17.3234 31.0849 17.8588V21.7902C31.0849 22.681 30.3628 23.4032 29.472 23.4032Z" fill="#EBEBEB"/>
<path d="M51.5033 57.2742H50.3389V49.6129C50.3389 49.1675 49.9778 48.8065 49.5324 48.8065H36.1756C35.7302 48.8065 35.3691 49.1675 35.3691 49.6129V59.6936C35.3691 60.1389 35.7302 60.5 36.1756 60.5H51.5486C52.4653 60.5 53.2028 59.7362 53.1597 58.8099C53.1192 57.9421 52.3721 57.2742 51.5033 57.2742ZM43.2824 54.6532H41.2663C40.3752 54.6532 39.6534 53.9315 39.6534 53.0403C39.6534 52.1492 40.3752 51.4274 41.2663 51.4274H43.2824C44.1736 51.4274 44.8953 52.1492 44.8953 53.0403C44.8953 53.9315 44.1736 54.6532 43.2824 54.6532Z" fill="#EBEBEB"/>
<path d="M35.3692 44.7742C35.3692 45.2198 35.7301 45.5806 36.1757 45.5806H49.5326C49.9781 45.5806 50.339 45.2198 50.339 44.7742V37.1129H51.1001C51.969 37.1129 52.716 36.4446 52.7563 35.5776C52.7997 34.6512 52.0618 33.8871 51.1455 33.8871H28.7914C29.1028 33.0092 29.0688 32.3693 29.0688 31.7702H34.21C35.1007 31.7702 35.8229 31.048 35.8229 30.1573C35.8229 29.2665 35.1007 28.5444 34.21 28.5444C33.4373 28.5444 18.6129 28.5444 17.9801 28.5444C17.0894 28.5444 16.3672 29.2665 16.3672 30.1573C16.3672 32.3766 16.2978 32.9091 16.6446 33.8871H9.65856C8.7896 33.8871 8.04263 34.5554 8.00231 35.4224C7.95896 36.3488 8.69686 37.1129 9.61319 37.1129H10.4196V58.8871C10.4196 59.7782 11.1414 60.5 12.0325 60.5H31.337C31.7825 60.5 32.1434 60.1391 32.1434 59.6936V40.7873C32.1434 39.9184 32.8118 39.1714 33.6787 39.131C34.6051 39.0877 35.3692 39.8256 35.3692 40.7419V44.7742ZM41.2664 39.7339H43.2826C44.1737 39.7339 44.8955 40.4556 44.8955 41.3468C44.8955 42.2379 44.1737 42.9597 43.2826 42.9597H41.2664C40.3753 42.9597 39.6535 42.2379 39.6535 41.3468C39.6535 40.4556 40.3753 39.7339 41.2664 39.7339ZM18.0809 39.5323H25.339C26.2301 39.5323 26.9519 40.254 26.9519 41.1452C26.9519 42.0363 26.2301 42.7581 25.339 42.7581H18.0809C17.1898 42.7581 16.468 42.0363 16.468 41.1452C16.468 40.254 17.1898 39.5323 18.0809 39.5323ZM28.5648 55.0565C28.5648 55.9476 27.843 56.6694 26.9519 56.6694H16.468C15.5769 56.6694 14.8551 55.9476 14.8551 55.0565V47.5968C14.8551 46.7056 15.5769 45.9839 16.468 45.9839H26.9519C27.843 45.9839 28.5648 46.7056 28.5648 47.5968V55.0565Z" fill="#EBEBEB"/>
<path d="M54.9647 59.6472C54.3511 58.47 55.3035 57.1505 56.5454 57.2823C57.4154 57.3656 58.0778 58.1483 57.992 59.0454C57.8402 60.615 55.7307 61.0563 54.9647 59.6472Z" fill="#EBEBEB"/>
</g>
<path d="M67.176 35C66.808 34.6 66.624 34.088 66.624 33.464C67.28 33.464 67.712 33.376 67.92 33.2C68.144 33.024 68.256 32.712 68.256 32.264V20.984C68.256 20.536 68.128 20.224 67.872 20.048C67.616 19.872 67.232 19.784 66.72 19.784C66.72 19.192 66.904 18.688 67.272 18.272H76.44C77.064 18 77.672 17.864 78.264 17.864C78.408 18.12 78.536 18.488 78.648 18.968C78.776 19.432 78.872 19.904 78.936 20.384C79.016 20.848 79.056 21.216 79.056 21.488C78.848 21.68 78.536 21.864 78.12 22.04C77.704 22.216 77.336 22.336 77.016 22.4C76.856 21.872 76.56 21.392 76.128 20.96C75.712 20.528 75.104 20.312 74.304 20.312H72.192V25.88H74.16C74.624 25.88 74.944 25.728 75.12 25.424C75.312 25.12 75.408 24.648 75.408 24.008C75.76 24.008 76.128 24.056 76.512 24.152C76.896 24.232 77.216 24.36 77.472 24.536V28.976C77.216 29.136 76.896 29.264 76.512 29.36C76.144 29.456 75.776 29.504 75.408 29.504C75.408 28.848 75.312 28.384 75.12 28.112C74.944 27.824 74.632 27.68 74.184 27.68H72.192V31.952C72.192 32.4 72.288 32.752 72.48 33.008C72.672 33.248 73.104 33.368 73.776 33.368H75.696C75.696 33.656 75.664 33.952 75.6 34.256C75.552 34.56 75.44 34.808 75.264 35H67.176ZM83.9574 35.168C82.8374 35.168 81.9654 34.824 81.3414 34.136C80.7174 33.448 80.4054 32.52 80.4054 31.352V24.752C80.4054 24.48 80.3014 24.288 80.0934 24.176C79.8854 24.064 79.5974 24.008 79.2294 24.008V22.952C79.4374 22.776 79.8694 22.592 80.5254 22.4C81.1974 22.192 81.9494 22.088 82.7814 22.088C83.4054 22.088 83.8134 22.16 84.0054 22.304C84.2134 22.448 84.3174 22.8 84.3174 23.36V31.424C84.3174 31.904 84.3974 32.272 84.5574 32.528C84.7174 32.784 84.9974 32.912 85.3974 32.912C85.7334 32.912 86.0534 32.808 86.3574 32.6C86.6774 32.392 86.9414 32.152 87.1494 31.88V24.752C87.1494 24.48 87.0294 24.288 86.7894 24.176C86.5494 24.064 86.2214 24.008 85.8054 24.008V22.952C86.0294 22.776 86.4694 22.592 87.1254 22.4C87.7814 22.192 88.5574 22.088 89.4534 22.088C90.0774 22.088 90.5014 22.16 90.7254 22.304C90.9494 22.448 91.0614 22.8 91.0614 23.36V32.192C91.0614 32.576 91.1574 32.896 91.3494 33.152C91.5574 33.408 91.8454 33.552 92.2134 33.584V34.256C91.9574 34.56 91.5494 34.792 90.9894 34.952C90.4454 35.096 89.9174 35.168 89.4054 35.168C88.8774 35.168 88.4134 35.032 88.0134 34.76C87.6294 34.472 87.3734 34.064 87.2454 33.536C86.4614 34.624 85.3654 35.168 83.9574 35.168ZM93.825 35C93.649 34.824 93.513 34.632 93.417 34.424C93.321 34.216 93.273 33.976 93.273 33.704C93.737 33.704 94.065 33.608 94.257 33.416C94.465 33.208 94.569 32.864 94.569 32.384V25.448C94.569 25.032 94.457 24.736 94.233 24.56C94.009 24.368 93.593 24.272 92.985 24.272V23.192C93.369 22.968 93.825 22.776 94.353 22.616C94.881 22.44 95.401 22.304 95.913 22.208C96.425 22.096 96.825 22.04 97.113 22.04C97.481 22.04 97.745 22.168 97.905 22.424C98.081 22.68 98.169 23.232 98.169 24.08C98.345 23.744 98.601 23.416 98.937 23.096C99.289 22.76 99.681 22.488 100.113 22.28C100.545 22.072 100.993 21.968 101.457 21.968C102.209 21.968 102.745 22.16 103.065 22.544C103.385 22.928 103.545 23.424 103.545 24.032C103.545 24.72 103.369 25.28 103.017 25.712C102.665 26.144 102.177 26.36 101.553 26.36C101.009 26.36 100.577 26.208 100.257 25.904C99.937 25.584 99.777 25.224 99.777 24.824C99.777 24.568 99.801 24.368 99.849 24.224C99.593 24.288 99.345 24.376 99.105 24.488C98.865 24.584 98.625 24.744 98.385 24.968V32.168C98.385 32.536 98.441 32.832 98.553 33.056C98.665 33.28 98.881 33.448 99.201 33.56C99.537 33.656 100.033 33.704 100.689 33.704C100.689 33.976 100.657 34.216 100.593 34.424C100.529 34.632 100.409 34.824 100.233 35H93.825ZM104.984 35C104.808 34.824 104.664 34.632 104.552 34.424C104.456 34.216 104.408 33.984 104.408 33.728C104.888 33.728 105.232 33.624 105.44 33.416C105.648 33.208 105.752 32.872 105.752 32.408V25.4C105.752 24.984 105.632 24.68 105.392 24.488C105.168 24.296 104.752 24.2 104.144 24.2V23.12C104.512 22.912 104.976 22.72 105.536 22.544C106.112 22.368 106.664 22.232 107.192 22.136C107.736 22.024 108.152 21.968 108.44 21.968C108.776 21.968 109.048 22.072 109.256 22.28C109.48 22.488 109.608 22.936 109.64 23.624C110.04 23.128 110.544 22.728 111.152 22.424C111.776 22.12 112.496 21.968 113.312 21.968C114.432 21.968 115.272 22.256 115.832 22.832C116.408 23.392 116.696 24.352 116.696 25.712V32.264C116.696 33.048 117.08 33.512 117.848 33.656L117.872 34.352C117.712 34.512 117.456 34.656 117.104 34.784C116.752 34.896 116.368 34.984 115.952 35.048C115.552 35.112 115.176 35.144 114.824 35.144C114.136 35.144 113.624 35.016 113.288 34.76C112.968 34.504 112.808 34.096 112.808 33.536V26.048C112.808 25.392 112.664 24.936 112.376 24.68C112.088 24.424 111.736 24.296 111.32 24.296C110.664 24.296 110.112 24.56 109.664 25.088V32.408C109.664 32.872 109.76 33.208 109.952 33.416C110.16 33.624 110.504 33.728 110.984 33.728C110.984 34.208 110.8 34.632 110.432 35H104.984ZM122.152 20.288C121.464 20.288 120.912 20.088 120.496 19.688C120.096 19.272 119.896 18.72 119.896 18.032C119.896 17.36 120.104 16.816 120.52 16.4C120.952 15.984 121.512 15.776 122.2 15.776C122.904 15.776 123.456 15.984 123.856 16.4C124.272 16.816 124.48 17.36 124.48 18.032C124.48 18.72 124.264 19.272 123.832 19.688C123.416 20.088 122.856 20.288 122.152 20.288ZM119.464 35C119.288 34.824 119.152 34.632 119.056 34.424C118.96 34.216 118.912 33.976 118.912 33.704C119.376 33.704 119.72 33.608 119.944 33.416C120.168 33.208 120.28 32.864 120.28 32.384V25.424C120.28 25.008 120.176 24.696 119.968 24.488C119.776 24.28 119.352 24.176 118.696 24.176V23.12C118.936 22.976 119.304 22.816 119.8 22.64C120.296 22.448 120.832 22.288 121.408 22.16C122 22.032 122.528 21.968 122.992 21.968C123.36 21.968 123.624 22.056 123.784 22.232C123.944 22.392 124.024 22.672 124.024 23.072V32.408C124.024 32.888 124.144 33.224 124.384 33.416C124.624 33.608 124.976 33.704 125.44 33.704C125.44 33.976 125.392 34.216 125.296 34.424C125.2 34.632 125.064 34.824 124.888 35H119.464ZM131.097 35.168C130.425 35.168 129.809 35.048 129.249 34.808C128.689 34.552 128.233 34.12 127.881 33.512C127.545 32.904 127.377 32.072 127.377 31.016V24.416H125.865V22.952C126.297 22.888 126.705 22.616 127.089 22.136C127.473 21.656 127.801 21.064 128.073 20.36C128.361 19.656 128.545 18.952 128.625 18.248C128.913 18.2 129.177 18.176 129.417 18.176C130.057 18.176 130.497 18.36 130.737 18.728C130.993 19.096 131.121 19.44 131.121 19.76V22.28H133.905C133.905 22.664 133.881 23.048 133.833 23.432C133.801 23.8 133.697 24.128 133.521 24.416H131.169V31.184C131.169 31.696 131.273 32.04 131.481 32.216C131.689 32.376 131.953 32.456 132.273 32.456C132.593 32.456 132.913 32.376 133.233 32.216C133.569 32.04 133.833 31.84 134.025 31.616C134.201 31.76 134.321 31.976 134.385 32.264C134.449 32.536 134.481 32.744 134.481 32.888C134.481 33.24 134.361 33.592 134.121 33.944C133.881 34.296 133.505 34.592 132.993 34.832C132.497 35.056 131.865 35.168 131.097 35.168ZM139.786 35.168C138.666 35.168 137.794 34.824 137.17 34.136C136.546 33.448 136.234 32.52 136.234 31.352V24.752C136.234 24.48 136.13 24.288 135.922 24.176C135.714 24.064 135.426 24.008 135.058 24.008V22.952C135.266 22.776 135.698 22.592 136.354 22.4C137.026 22.192 137.778 22.088 138.61 22.088C139.234 22.088 139.642 22.16 139.834 22.304C140.042 22.448 140.146 22.8 140.146 23.36V31.424C140.146 31.904 140.226 32.272 140.386 32.528C140.546 32.784 140.826 32.912 141.226 32.912C141.562 32.912 141.882 32.808 142.186 32.6C142.506 32.392 142.77 32.152 142.978 31.88V24.752C142.978 24.48 142.858 24.288 142.618 24.176C142.378 24.064 142.05 24.008 141.634 24.008V22.952C141.858 22.776 142.298 22.592 142.954 22.4C143.61 22.192 144.386 22.088 145.282 22.088C145.906 22.088 146.33 22.16 146.554 22.304C146.778 22.448 146.89 22.8 146.89 23.36V32.192C146.89 32.576 146.986 32.896 147.178 33.152C147.386 33.408 147.674 33.552 148.042 33.584V34.256C147.786 34.56 147.378 34.792 146.818 34.952C146.274 35.096 145.746 35.168 145.234 35.168C144.706 35.168 144.242 35.032 143.842 34.76C143.458 34.472 143.202 34.064 143.074 33.536C142.29 34.624 141.194 35.168 139.786 35.168ZM149.653 35C149.477 34.824 149.341 34.632 149.245 34.424C149.149 34.216 149.101 33.976 149.101 33.704C149.565 33.704 149.893 33.608 150.085 33.416C150.293 33.208 150.397 32.864 150.397 32.384V25.448C150.397 25.032 150.285 24.736 150.061 24.56C149.837 24.368 149.421 24.272 148.813 24.272V23.192C149.197 22.968 149.653 22.776 150.181 22.616C150.709 22.44 151.229 22.304 151.741 22.208C152.253 22.096 152.653 22.04 152.941 22.04C153.309 22.04 153.573 22.168 153.733 22.424C153.909 22.68 153.997 23.232 153.997 24.08C154.173 23.744 154.429 23.416 154.765 23.096C155.117 22.76 155.509 22.488 155.941 22.28C156.373 22.072 156.821 21.968 157.285 21.968C158.037 21.968 158.573 22.16 158.893 22.544C159.213 22.928 159.373 23.424 159.373 24.032C159.373 24.72 159.197 25.28 158.845 25.712C158.493 26.144 158.005 26.36 157.381 26.36C156.837 26.36 156.405 26.208 156.085 25.904C155.765 25.584 155.605 25.224 155.605 24.824C155.605 24.568 155.629 24.368 155.677 24.224C155.421 24.288 155.173 24.376 154.933 24.488C154.693 24.584 154.453 24.744 154.213 24.968V32.168C154.213 32.536 154.269 32.832 154.381 33.056C154.493 33.28 154.709 33.448 155.029 33.56C155.365 33.656 155.861 33.704 156.517 33.704C156.517 33.976 156.485 34.216 156.421 34.424C156.357 34.632 156.237 34.824 156.061 35H149.653ZM165.435 35.216C163.643 35.216 162.211 34.648 161.139 33.512C160.083 32.376 159.555 30.792 159.555 28.76C159.555 27.368 159.819 26.168 160.347 25.16C160.875 24.136 161.587 23.352 162.483 22.808C163.395 22.264 164.427 21.992 165.579 21.992C167.019 21.992 168.171 22.416 169.035 23.264C169.915 24.096 170.355 25.272 170.355 26.792C170.355 27.4 170.251 27.936 170.043 28.4C169.851 28.848 169.443 29.072 168.819 29.072H163.635C163.683 30.336 163.971 31.232 164.499 31.76C165.043 32.288 165.747 32.552 166.611 32.552C167.155 32.552 167.659 32.472 168.123 32.312C168.587 32.136 169.019 31.896 169.419 31.592C169.563 31.72 169.675 31.92 169.755 32.192C169.851 32.448 169.899 32.664 169.899 32.84C169.899 33.096 169.715 33.416 169.347 33.8C168.995 34.168 168.483 34.496 167.811 34.784C167.155 35.072 166.363 35.216 165.435 35.216ZM163.635 27.248H166.059C166.331 27.248 166.499 27.144 166.563 26.936C166.643 26.728 166.683 26.472 166.683 26.168C166.683 25.144 166.555 24.472 166.299 24.152C166.059 23.816 165.771 23.648 165.435 23.648C165.163 23.648 164.891 23.752 164.619 23.96C164.347 24.168 164.123 24.536 163.947 25.064C163.771 25.576 163.667 26.304 163.635 27.248Z" fill="#EBEBEB"/>
<path d="M66.66 53C66.476 52.816 66.384 52.6 66.384 52.352C66.624 52.352 66.792 52.3 66.888 52.196C66.992 52.092 67.044 51.924 67.044 51.692V47.72H66.312V46.976C66.488 46.936 66.628 46.888 66.732 46.832C66.836 46.776 66.932 46.716 67.02 46.652C66.988 46.468 66.964 46.3 66.948 46.148C66.932 45.996 66.924 45.82 66.924 45.62C66.924 44.788 67.144 44.168 67.584 43.76C68.024 43.344 68.62 43.136 69.372 43.136C69.756 43.136 70.072 43.216 70.32 43.376C70.568 43.528 70.752 43.716 70.872 43.94C70.992 44.164 71.052 44.376 71.052 44.576C71.052 44.872 70.972 45.12 70.812 45.32C70.66 45.52 70.452 45.62 70.188 45.62C69.948 45.62 69.736 45.536 69.552 45.368C69.368 45.192 69.276 44.992 69.276 44.768C69.276 44.672 69.296 44.564 69.336 44.444C69.376 44.316 69.476 44.192 69.636 44.072C69.612 44.032 69.568 44 69.504 43.976C69.448 43.944 69.396 43.928 69.348 43.928C69.22 43.928 69.1 43.992 68.988 44.12C68.876 44.24 68.784 44.4 68.712 44.6C68.648 44.8 68.616 45.012 68.616 45.236C68.616 45.476 68.636 45.704 68.676 45.92C68.724 46.136 68.78 46.312 68.844 46.448C68.908 46.576 68.964 46.64 69.012 46.64H70.164C70.164 46.816 70.152 47.008 70.128 47.216C70.104 47.416 70.048 47.584 69.96 47.72H68.94V51.584C68.94 51.76 68.968 51.908 69.024 52.028C69.08 52.14 69.192 52.224 69.36 52.28C69.528 52.328 69.776 52.352 70.104 52.352C70.104 52.6 70.012 52.816 69.828 53H66.66ZM71.5242 53C71.4362 52.912 71.3682 52.816 71.3202 52.712C71.2722 52.608 71.2482 52.488 71.2482 52.352C71.4802 52.352 71.6442 52.304 71.7402 52.208C71.8442 52.104 71.8962 51.932 71.8962 51.692V48.224C71.8962 48.016 71.8402 47.868 71.7282 47.78C71.6162 47.684 71.4082 47.636 71.1042 47.636V47.096C71.2962 46.984 71.5242 46.888 71.7882 46.808C72.0522 46.72 72.3122 46.652 72.5682 46.604C72.8242 46.548 73.0242 46.52 73.1682 46.52C73.3522 46.52 73.4842 46.584 73.5642 46.712C73.6522 46.84 73.6962 47.116 73.6962 47.54C73.7842 47.372 73.9122 47.208 74.0802 47.048C74.2562 46.88 74.4522 46.744 74.6682 46.64C74.8842 46.536 75.1082 46.484 75.3402 46.484C75.7162 46.484 75.9842 46.58 76.1442 46.772C76.3042 46.964 76.3842 47.212 76.3842 47.516C76.3842 47.86 76.2962 48.14 76.1202 48.356C75.9442 48.572 75.7002 48.68 75.3882 48.68C75.1162 48.68 74.9002 48.604 74.7402 48.452C74.5802 48.292 74.5002 48.112 74.5002 47.912C74.5002 47.784 74.5122 47.684 74.5362 47.612C74.4082 47.644 74.2842 47.688 74.1642 47.744C74.0442 47.792 73.9242 47.872 73.8042 47.984V51.584C73.8042 51.768 73.8322 51.916 73.8882 52.028C73.9442 52.14 74.0522 52.224 74.2122 52.28C74.3802 52.328 74.6282 52.352 74.9562 52.352C74.9562 52.488 74.9402 52.608 74.9082 52.712C74.8762 52.816 74.8162 52.912 74.7282 53H71.5242ZM79.9911 53.156C79.4231 53.156 78.9191 53.036 78.4791 52.796C78.0391 52.548 77.6951 52.188 77.4471 51.716C77.2071 51.236 77.0871 50.644 77.0871 49.94C77.0871 49.188 77.2151 48.556 77.4711 48.044C77.7271 47.532 78.0831 47.144 78.5391 46.88C78.9951 46.616 79.5191 46.484 80.1111 46.484C80.6871 46.484 81.1911 46.608 81.6231 46.856C82.0631 47.104 82.4031 47.472 82.6431 47.96C82.8911 48.44 83.0151 49.036 83.0151 49.748C83.0151 50.492 82.8871 51.12 82.6311 51.632C82.3751 52.136 82.0191 52.516 81.5631 52.772C81.1071 53.028 80.5831 53.156 79.9911 53.156ZM80.0871 52.292C80.2551 52.292 80.3991 52.232 80.5191 52.112C80.6471 51.992 80.7431 51.772 80.8071 51.452C80.8791 51.124 80.9151 50.652 80.9151 50.036C80.9151 49.284 80.8791 48.716 80.8071 48.332C80.7351 47.94 80.6311 47.676 80.4951 47.54C80.3591 47.404 80.1991 47.336 80.0151 47.336C79.8471 47.336 79.6991 47.396 79.5711 47.516C79.4431 47.636 79.3431 47.86 79.2711 48.188C79.2071 48.516 79.1751 48.992 79.1751 49.616C79.1751 50.36 79.2111 50.924 79.2831 51.308C79.3631 51.692 79.4711 51.952 79.6071 52.088C79.7431 52.224 79.9031 52.292 80.0871 52.292ZM93.0813 53.072C92.7853 53.072 92.5293 53.032 92.3133 52.952C92.1053 52.864 92.0013 52.696 92.0013 52.448V48.452C92.0013 48.196 91.9293 48 91.7853 47.864C91.6493 47.72 91.4653 47.648 91.2333 47.648C91.1053 47.648 90.9733 47.672 90.8373 47.72C90.7093 47.768 90.5933 47.84 90.4893 47.936C90.4973 47.968 90.5013 48 90.5013 48.032C90.5013 48.056 90.5013 48.084 90.5013 48.116V51.704C90.5013 51.936 90.5493 52.104 90.6453 52.208C90.7413 52.304 90.8933 52.352 91.1013 52.352C91.1013 52.48 91.0733 52.6 91.0173 52.712C90.9693 52.816 90.9013 52.912 90.8133 53H88.2573C88.1773 52.912 88.1093 52.816 88.0533 52.712C88.0053 52.6 87.9813 52.48 87.9813 52.352C88.1893 52.352 88.3333 52.304 88.4133 52.208C88.5013 52.104 88.5453 51.936 88.5453 51.704V48.452C88.5453 48.196 88.4693 48 88.3173 47.864C88.1733 47.72 87.9973 47.648 87.7893 47.648C87.6373 47.648 87.4813 47.684 87.3213 47.756C87.1613 47.828 87.0253 47.932 86.9133 48.068V51.704C86.9133 51.936 86.9533 52.104 87.0333 52.208C87.1213 52.304 87.2653 52.352 87.4653 52.352C87.4653 52.6 87.3693 52.816 87.1773 53H84.5733C84.4853 52.912 84.4133 52.816 84.3573 52.712C84.3093 52.6 84.2853 52.48 84.2853 52.352C84.5253 52.352 84.6973 52.304 84.8013 52.208C84.9053 52.104 84.9573 51.936 84.9573 51.704V48.188C84.9573 47.98 84.8973 47.828 84.7773 47.732C84.6653 47.636 84.4573 47.588 84.1533 47.588V47.06C84.3373 46.948 84.5693 46.848 84.8493 46.76C85.1373 46.672 85.4133 46.604 85.6773 46.556C85.9493 46.5 86.1573 46.472 86.3013 46.472C86.4613 46.472 86.5933 46.524 86.6973 46.628C86.8093 46.724 86.8813 46.928 86.9133 47.24C87.1213 47.008 87.3813 46.824 87.6933 46.688C88.0133 46.544 88.3733 46.472 88.7733 46.472C89.5733 46.472 90.0933 46.74 90.3333 47.276C90.5413 47.02 90.8093 46.824 91.1373 46.688C91.4733 46.544 91.8453 46.472 92.2533 46.472C92.8293 46.472 93.2573 46.612 93.5373 46.892C93.8253 47.172 93.9693 47.58 93.9693 48.116V51.704C93.9693 51.888 94.0213 52.028 94.1253 52.124C94.2293 52.22 94.3733 52.288 94.5573 52.328V52.676C94.4133 52.804 94.2253 52.904 93.9933 52.976C93.7613 53.04 93.4573 53.072 93.0813 53.072ZM101.045 53.12C100.757 53.12 100.465 53.088 100.169 53.024C99.8814 52.96 99.6134 52.868 99.3654 52.748C99.1254 52.628 98.9294 52.48 98.7774 52.304C98.6254 52.12 98.5494 51.912 98.5494 51.68C98.5494 51.4 98.6294 51.176 98.7894 51.008C98.9494 50.832 99.1534 50.744 99.4014 50.744C99.6254 50.744 99.8134 50.816 99.9654 50.96C100.125 51.104 100.205 51.292 100.205 51.524C100.205 51.628 100.189 51.72 100.157 51.8C100.125 51.872 100.077 51.952 100.013 52.04C100.085 52.112 100.213 52.164 100.397 52.196C100.581 52.228 100.761 52.244 100.937 52.244C101.217 52.244 101.433 52.192 101.585 52.088C101.737 51.984 101.813 51.856 101.813 51.704C101.813 51.464 101.685 51.26 101.429 51.092C101.173 50.916 100.881 50.74 100.553 50.564C100.257 50.404 99.9614 50.236 99.6654 50.06C99.3774 49.876 99.1334 49.648 98.9334 49.376C98.7414 49.104 98.6454 48.76 98.6454 48.344C98.6454 47.816 98.8654 47.38 99.3054 47.036C99.7454 46.692 100.369 46.52 101.177 46.52C101.737 46.52 102.185 46.592 102.521 46.736C102.857 46.872 103.101 47.048 103.253 47.264C103.405 47.472 103.481 47.692 103.481 47.924C103.481 48.172 103.401 48.372 103.241 48.524C103.089 48.668 102.901 48.74 102.677 48.74C102.477 48.74 102.301 48.68 102.149 48.56C101.997 48.432 101.921 48.268 101.921 48.068C101.921 47.972 101.937 47.868 101.969 47.756C102.001 47.644 102.045 47.552 102.101 47.48C102.013 47.408 101.909 47.36 101.789 47.336C101.677 47.304 101.541 47.288 101.381 47.288C101.117 47.288 100.913 47.352 100.769 47.48C100.633 47.6 100.565 47.748 100.565 47.924C100.565 48.196 100.693 48.42 100.949 48.596C101.213 48.772 101.505 48.944 101.825 49.112C102.121 49.264 102.409 49.428 102.689 49.604C102.977 49.78 103.217 50 103.409 50.264C103.601 50.528 103.697 50.868 103.697 51.284C103.697 51.732 103.569 52.092 103.313 52.364C103.057 52.628 102.725 52.82 102.317 52.94C101.917 53.06 101.493 53.12 101.045 53.12ZM106.477 45.644C106.133 45.644 105.857 45.544 105.649 45.344C105.449 45.136 105.349 44.86 105.349 44.516C105.349 44.18 105.453 43.908 105.661 43.7C105.877 43.492 106.157 43.388 106.501 43.388C106.853 43.388 107.129 43.492 107.329 43.7C107.537 43.908 107.641 44.18 107.641 44.516C107.641 44.86 107.533 45.136 107.317 45.344C107.109 45.544 106.829 45.644 106.477 45.644ZM105.133 53C105.045 52.912 104.977 52.816 104.929 52.712C104.881 52.608 104.857 52.488 104.857 52.352C105.089 52.352 105.261 52.304 105.373 52.208C105.485 52.104 105.541 51.932 105.541 51.692V48.212C105.541 48.004 105.489 47.848 105.385 47.744C105.289 47.64 105.077 47.588 104.749 47.588V47.06C104.869 46.988 105.053 46.908 105.301 46.82C105.549 46.724 105.817 46.644 106.105 46.58C106.401 46.516 106.665 46.484 106.897 46.484C107.081 46.484 107.213 46.528 107.293 46.616C107.373 46.696 107.413 46.836 107.413 47.036V51.704C107.413 51.944 107.473 52.112 107.593 52.208C107.713 52.304 107.889 52.352 108.121 52.352C108.121 52.488 108.097 52.608 108.049 52.712C108.001 52.816 107.933 52.912 107.845 53H105.133ZM111.549 53.084C111.213 53.084 110.905 53.024 110.625 52.904C110.345 52.776 110.117 52.56 109.941 52.256C109.773 51.952 109.689 51.536 109.689 51.008V47.708H108.933V46.976C109.149 46.944 109.353 46.808 109.545 46.568C109.737 46.328 109.901 46.032 110.037 45.68C110.181 45.328 110.273 44.976 110.313 44.624C110.457 44.6 110.589 44.588 110.709 44.588C111.029 44.588 111.249 44.68 111.369 44.864C111.497 45.048 111.561 45.22 111.561 45.38V46.64H112.953C112.953 46.832 112.941 47.024 112.917 47.216C112.901 47.4 112.849 47.564 112.761 47.708H111.585V51.092C111.585 51.348 111.637 51.52 111.741 51.608C111.845 51.688 111.977 51.728 112.137 51.728C112.297 51.728 112.457 51.688 112.617 51.608C112.785 51.52 112.917 51.42 113.013 51.308C113.101 51.38 113.161 51.488 113.193 51.632C113.225 51.768 113.241 51.872 113.241 51.944C113.241 52.12 113.181 52.296 113.061 52.472C112.941 52.648 112.753 52.796 112.497 52.916C112.249 53.028 111.933 53.084 111.549 53.084ZM117.049 53.108C116.153 53.108 115.437 52.824 114.901 52.256C114.373 51.688 114.109 50.896 114.109 49.88C114.109 49.184 114.241 48.584 114.505 48.08C114.769 47.568 115.125 47.176 115.573 46.904C116.029 46.632 116.545 46.496 117.121 46.496C117.841 46.496 118.417 46.708 118.849 47.132C119.289 47.548 119.509 48.136 119.509 48.896C119.509 49.2 119.457 49.468 119.353 49.7C119.257 49.924 119.053 50.036 118.741 50.036H116.149C116.173 50.668 116.317 51.116 116.581 51.38C116.853 51.644 117.205 51.776 117.637 51.776C117.909 51.776 118.161 51.736 118.393 51.656C118.625 51.568 118.841 51.448 119.041 51.296C119.113 51.36 119.169 51.46 119.209 51.596C119.257 51.724 119.281 51.832 119.281 51.92C119.281 52.048 119.189 52.208 119.005 52.4C118.829 52.584 118.573 52.748 118.237 52.892C117.909 53.036 117.513 53.108 117.049 53.108ZM116.149 49.124H117.361C117.497 49.124 117.581 49.072 117.613 48.968C117.653 48.864 117.673 48.736 117.673 48.584C117.673 48.072 117.609 47.736 117.481 47.576C117.361 47.408 117.217 47.324 117.049 47.324C116.913 47.324 116.777 47.376 116.641 47.48C116.505 47.584 116.393 47.768 116.305 48.032C116.217 48.288 116.165 48.652 116.149 49.124ZM120.879 53C120.791 52.912 120.719 52.784 120.663 52.616C120.615 52.448 120.591 52.304 120.591 52.184C120.983 52.184 121.299 52.112 121.539 51.968C121.787 51.816 121.911 51.532 121.911 51.116V46.772C121.911 46.516 121.731 46.388 121.371 46.388C121.259 46.388 121.131 46.404 120.987 46.436C120.851 46.46 120.727 46.496 120.615 46.544L120.291 45.944L122.163 44.852C122.435 44.692 122.647 44.592 122.799 44.552C122.951 44.504 123.079 44.48 123.183 44.48C123.407 44.48 123.555 44.556 123.627 44.708C123.707 44.852 123.747 44.992 123.747 45.128V51.116C123.747 51.54 123.863 51.824 124.095 51.968C124.335 52.112 124.663 52.184 125.079 52.184C125.079 52.304 125.055 52.448 125.007 52.616C124.959 52.784 124.891 52.912 124.803 53H120.879ZM129.28 53.12C128.584 53.12 127.98 52.98 127.468 52.7C126.956 52.42 126.56 51.972 126.28 51.356C126 50.732 125.86 49.912 125.86 48.896C125.86 47.816 126.004 46.956 126.292 46.316C126.58 45.668 126.98 45.204 127.492 44.924C128.012 44.644 128.616 44.504 129.304 44.504C130 44.504 130.604 44.648 131.116 44.936C131.636 45.216 132.036 45.68 132.316 46.328C132.596 46.968 132.736 47.828 132.736 48.908C132.736 49.932 132.592 50.756 132.304 51.38C132.016 51.996 131.612 52.44 131.092 52.712C130.58 52.984 129.976 53.12 129.28 53.12ZM129.28 52.28C129.456 52.28 129.624 52.236 129.784 52.148C129.944 52.06 130.084 51.9 130.204 51.668C130.324 51.428 130.416 51.084 130.48 50.636C130.552 50.188 130.588 49.604 130.588 48.884C130.588 48.116 130.552 47.496 130.48 47.024C130.416 46.552 130.324 46.196 130.204 45.956C130.084 45.716 129.948 45.556 129.796 45.476C129.644 45.388 129.48 45.344 129.304 45.344C129.128 45.344 128.96 45.388 128.8 45.476C128.648 45.556 128.512 45.72 128.392 45.968C128.272 46.208 128.176 46.564 128.104 47.036C128.032 47.508 127.996 48.136 127.996 48.92C127.996 49.632 128.028 50.208 128.092 50.648C128.164 51.088 128.26 51.428 128.38 51.668C128.5 51.9 128.636 52.06 128.788 52.148C128.948 52.236 129.112 52.28 129.28 52.28ZM137.837 53.12C137.141 53.12 136.537 52.98 136.025 52.7C135.513 52.42 135.117 51.972 134.837 51.356C134.557 50.732 134.417 49.912 134.417 48.896C134.417 47.816 134.561 46.956 134.849 46.316C135.137 45.668 135.537 45.204 136.049 44.924C136.569 44.644 137.173 44.504 137.861 44.504C138.557 44.504 139.161 44.648 139.673 44.936C140.193 45.216 140.593 45.68 140.873 46.328C141.153 46.968 141.293 47.828 141.293 48.908C141.293 49.932 141.149 50.756 140.861 51.38C140.573 51.996 140.169 52.44 139.649 52.712C139.137 52.984 138.533 53.12 137.837 53.12ZM137.837 52.28C138.013 52.28 138.181 52.236 138.341 52.148C138.501 52.06 138.641 51.9 138.761 51.668C138.881 51.428 138.973 51.084 139.037 50.636C139.109 50.188 139.145 49.604 139.145 48.884C139.145 48.116 139.109 47.496 139.037 47.024C138.973 46.552 138.881 46.196 138.761 45.956C138.641 45.716 138.505 45.556 138.353 45.476C138.201 45.388 138.037 45.344 137.861 45.344C137.685 45.344 137.517 45.388 137.357 45.476C137.205 45.556 137.069 45.72 136.949 45.968C136.829 46.208 136.733 46.564 136.661 47.036C136.589 47.508 136.553 48.136 136.553 48.92C136.553 49.632 136.585 50.208 136.649 50.648C136.721 51.088 136.817 51.428 136.937 51.668C137.057 51.9 137.193 52.06 137.345 52.148C137.505 52.236 137.669 52.28 137.837 52.28ZM143.373 53.156C143.005 53.156 142.709 53.048 142.485 52.832C142.261 52.608 142.149 52.32 142.149 51.968C142.149 51.608 142.261 51.32 142.485 51.104C142.709 50.888 143.005 50.78 143.373 50.78C143.733 50.78 144.025 50.888 144.249 51.104C144.473 51.32 144.585 51.608 144.585 51.968C144.585 52.32 144.473 52.608 144.249 52.832C144.025 53.048 143.733 53.156 143.373 53.156ZM145.838 53C145.75 52.912 145.682 52.816 145.634 52.712C145.586 52.608 145.562 52.488 145.562 52.352C145.794 52.352 145.958 52.304 146.054 52.208C146.158 52.104 146.21 51.932 146.21 51.692V48.224C146.21 48.016 146.154 47.868 146.042 47.78C145.93 47.684 145.722 47.636 145.418 47.636V47.096C145.61 46.984 145.838 46.888 146.102 46.808C146.366 46.72 146.626 46.652 146.882 46.604C147.138 46.548 147.338 46.52 147.482 46.52C147.666 46.52 147.798 46.584 147.878 46.712C147.966 46.84 148.01 47.116 148.01 47.54C148.098 47.372 148.226 47.208 148.394 47.048C148.57 46.88 148.766 46.744 148.982 46.64C149.198 46.536 149.422 46.484 149.654 46.484C150.03 46.484 150.298 46.58 150.458 46.772C150.618 46.964 150.698 47.212 150.698 47.516C150.698 47.86 150.61 48.14 150.434 48.356C150.258 48.572 150.014 48.68 149.702 48.68C149.43 48.68 149.214 48.604 149.054 48.452C148.894 48.292 148.814 48.112 148.814 47.912C148.814 47.784 148.826 47.684 148.85 47.612C148.722 47.644 148.598 47.688 148.478 47.744C148.358 47.792 148.238 47.872 148.118 47.984V51.584C148.118 51.768 148.146 51.916 148.202 52.028C148.258 52.14 148.366 52.224 148.526 52.28C148.694 52.328 148.942 52.352 149.27 52.352C149.27 52.488 149.254 52.608 149.222 52.712C149.19 52.816 149.13 52.912 149.042 53H145.838ZM153.855 53.084C153.295 53.084 152.859 52.912 152.547 52.568C152.235 52.224 152.079 51.76 152.079 51.176V47.876C152.079 47.74 152.027 47.644 151.923 47.588C151.819 47.532 151.675 47.504 151.491 47.504V46.976C151.595 46.888 151.811 46.796 152.139 46.7C152.475 46.596 152.851 46.544 153.267 46.544C153.579 46.544 153.783 46.58 153.879 46.652C153.983 46.724 154.035 46.9 154.035 47.18V51.212C154.035 51.452 154.075 51.636 154.155 51.764C154.235 51.892 154.375 51.956 154.575 51.956C154.743 51.956 154.903 51.904 155.055 51.8C155.215 51.696 155.347 51.576 155.451 51.44V47.876C155.451 47.74 155.391 47.644 155.271 47.588C155.151 47.532 154.987 47.504 154.779 47.504V46.976C154.891 46.888 155.111 46.796 155.439 46.7C155.767 46.596 156.155 46.544 156.603 46.544C156.915 46.544 157.127 46.58 157.239 46.652C157.351 46.724 157.407 46.9 157.407 47.18V51.596C157.407 51.788 157.455 51.948 157.551 52.076C157.655 52.204 157.799 52.276 157.983 52.292V52.628C157.855 52.78 157.651 52.896 157.371 52.976C157.099 53.048 156.835 53.084 156.579 53.084C156.315 53.084 156.083 53.016 155.883 52.88C155.691 52.736 155.563 52.532 155.499 52.268C155.107 52.812 154.559 53.084 153.855 53.084Z" fill="#EBEBEB"/>
<defs>
<clipPath id="clip0_6002_8074">
<rect width="50" height="50" fill="white" transform="translate(8 10.5)"/>
</clipPath>
</defs>
</svg>
