<svg width="181" height="70" viewBox="0 0 181 70" fill="none" xmlns="http://www.w3.org/2000/svg">
<path d="M71.176 43C70.808 42.6 70.624 42.088 70.624 41.464C71.28 41.464 71.712 41.376 71.92 41.2C72.144 41.024 72.256 40.712 72.256 40.264V28.984C72.256 28.536 72.128 28.224 71.872 28.048C71.616 27.872 71.232 27.784 70.72 27.784C70.72 27.192 70.904 26.688 71.272 26.272H80.44C81.064 26 81.672 25.864 82.264 25.864C82.408 26.12 82.536 26.488 82.648 26.968C82.776 27.432 82.872 27.904 82.936 28.384C83.016 28.848 83.056 29.216 83.056 29.488C82.848 29.68 82.536 29.864 82.12 30.04C81.704 30.216 81.336 30.336 81.016 30.4C80.856 29.872 80.56 29.392 80.128 28.96C79.712 28.528 79.104 28.312 78.304 28.312H76.192V33.88H78.16C78.624 33.88 78.944 33.728 79.12 33.424C79.312 33.12 79.408 32.648 79.408 32.008C79.76 32.008 80.128 32.056 80.512 32.152C80.896 32.232 81.216 32.36 81.472 32.536V36.976C81.216 37.136 80.896 37.264 80.512 37.36C80.144 37.456 79.776 37.504 79.408 37.504C79.408 36.848 79.312 36.384 79.12 36.112C78.944 35.824 78.632 35.68 78.184 35.68H76.192V39.952C76.192 40.4 76.288 40.752 76.48 41.008C76.672 41.248 77.104 41.368 77.776 41.368H79.696C79.696 41.656 79.664 41.952 79.6 42.256C79.552 42.56 79.44 42.808 79.264 43H71.176ZM87.9574 43.168C86.8374 43.168 85.9654 42.824 85.3414 42.136C84.7174 41.448 84.4054 40.52 84.4054 39.352V32.752C84.4054 32.48 84.3014 32.288 84.0934 32.176C83.8854 32.064 83.5974 32.008 83.2294 32.008V30.952C83.4374 30.776 83.8694 30.592 84.5254 30.4C85.1974 30.192 85.9494 30.088 86.7814 30.088C87.4054 30.088 87.8134 30.16 88.0054 30.304C88.2134 30.448 88.3174 30.8 88.3174 31.36V39.424C88.3174 39.904 88.3974 40.272 88.5574 40.528C88.7174 40.784 88.9974 40.912 89.3974 40.912C89.7334 40.912 90.0534 40.808 90.3574 40.6C90.6774 40.392 90.9414 40.152 91.1494 39.88V32.752C91.1494 32.48 91.0294 32.288 90.7894 32.176C90.5494 32.064 90.2214 32.008 89.8054 32.008V30.952C90.0294 30.776 90.4694 30.592 91.1254 30.4C91.7814 30.192 92.5574 30.088 93.4534 30.088C94.0774 30.088 94.5014 30.16 94.7254 30.304C94.9494 30.448 95.0614 30.8 95.0614 31.36V40.192C95.0614 40.576 95.1574 40.896 95.3494 41.152C95.5574 41.408 95.8454 41.552 96.2134 41.584V42.256C95.9574 42.56 95.5494 42.792 94.9894 42.952C94.4454 43.096 93.9174 43.168 93.4054 43.168C92.8774 43.168 92.4134 43.032 92.0134 42.76C91.6294 42.472 91.3734 42.064 91.2454 41.536C90.4614 42.624 89.3654 43.168 87.9574 43.168ZM97.825 43C97.649 42.824 97.513 42.632 97.417 42.424C97.321 42.216 97.273 41.976 97.273 41.704C97.737 41.704 98.065 41.608 98.257 41.416C98.465 41.208 98.569 40.864 98.569 40.384V33.448C98.569 33.032 98.457 32.736 98.233 32.56C98.009 32.368 97.593 32.272 96.985 32.272V31.192C97.369 30.968 97.825 30.776 98.353 30.616C98.881 30.44 99.401 30.304 99.913 30.208C100.425 30.096 100.825 30.04 101.113 30.04C101.481 30.04 101.745 30.168 101.905 30.424C102.081 30.68 102.169 31.232 102.169 32.08C102.345 31.744 102.601 31.416 102.937 31.096C103.289 30.76 103.681 30.488 104.113 30.28C104.545 30.072 104.993 29.968 105.457 29.968C106.209 29.968 106.745 30.16 107.065 30.544C107.385 30.928 107.545 31.424 107.545 32.032C107.545 32.72 107.369 33.28 107.017 33.712C106.665 34.144 106.177 34.36 105.553 34.36C105.009 34.36 104.577 34.208 104.257 33.904C103.937 33.584 103.777 33.224 103.777 32.824C103.777 32.568 103.801 32.368 103.849 32.224C103.593 32.288 103.345 32.376 103.105 32.488C102.865 32.584 102.625 32.744 102.385 32.968V40.168C102.385 40.536 102.441 40.832 102.553 41.056C102.665 41.28 102.881 41.448 103.201 41.56C103.537 41.656 104.033 41.704 104.689 41.704C104.689 41.976 104.657 42.216 104.593 42.424C104.529 42.632 104.409 42.824 104.233 43H97.825ZM108.984 43C108.808 42.824 108.664 42.632 108.552 42.424C108.456 42.216 108.408 41.984 108.408 41.728C108.888 41.728 109.232 41.624 109.44 41.416C109.648 41.208 109.752 40.872 109.752 40.408V33.4C109.752 32.984 109.632 32.68 109.392 32.488C109.168 32.296 108.752 32.2 108.144 32.2V31.12C108.512 30.912 108.976 30.72 109.536 30.544C110.112 30.368 110.664 30.232 111.192 30.136C111.736 30.024 112.152 29.968 112.44 29.968C112.776 29.968 113.048 30.072 113.256 30.28C113.48 30.488 113.608 30.936 113.64 31.624C114.04 31.128 114.544 30.728 115.152 30.424C115.776 30.12 116.496 29.968 117.312 29.968C118.432 29.968 119.272 30.256 119.832 30.832C120.408 31.392 120.696 32.352 120.696 33.712V40.264C120.696 41.048 121.08 41.512 121.848 41.656L121.872 42.352C121.712 42.512 121.456 42.656 121.104 42.784C120.752 42.896 120.368 42.984 119.952 43.048C119.552 43.112 119.176 43.144 118.824 43.144C118.136 43.144 117.624 43.016 117.288 42.76C116.968 42.504 116.808 42.096 116.808 41.536V34.048C116.808 33.392 116.664 32.936 116.376 32.68C116.088 32.424 115.736 32.296 115.32 32.296C114.664 32.296 114.112 32.56 113.664 33.088V40.408C113.664 40.872 113.76 41.208 113.952 41.416C114.16 41.624 114.504 41.728 114.984 41.728C114.984 42.208 114.8 42.632 114.432 43H108.984ZM126.152 28.288C125.464 28.288 124.912 28.088 124.496 27.688C124.096 27.272 123.896 26.72 123.896 26.032C123.896 25.36 124.104 24.816 124.52 24.4C124.952 23.984 125.512 23.776 126.2 23.776C126.904 23.776 127.456 23.984 127.856 24.4C128.272 24.816 128.48 25.36 128.48 26.032C128.48 26.72 128.264 27.272 127.832 27.688C127.416 28.088 126.856 28.288 126.152 28.288ZM123.464 43C123.288 42.824 123.152 42.632 123.056 42.424C122.96 42.216 122.912 41.976 122.912 41.704C123.376 41.704 123.72 41.608 123.944 41.416C124.168 41.208 124.28 40.864 124.28 40.384V33.424C124.28 33.008 124.176 32.696 123.968 32.488C123.776 32.28 123.352 32.176 122.696 32.176V31.12C122.936 30.976 123.304 30.816 123.8 30.64C124.296 30.448 124.832 30.288 125.408 30.16C126 30.032 126.528 29.968 126.992 29.968C127.36 29.968 127.624 30.056 127.784 30.232C127.944 30.392 128.024 30.672 128.024 31.072V40.408C128.024 40.888 128.144 41.224 128.384 41.416C128.624 41.608 128.976 41.704 129.44 41.704C129.44 41.976 129.392 42.216 129.296 42.424C129.2 42.632 129.064 42.824 128.888 43H123.464ZM135.097 43.168C134.425 43.168 133.809 43.048 133.249 42.808C132.689 42.552 132.233 42.12 131.881 41.512C131.545 40.904 131.377 40.072 131.377 39.016V32.416H129.865V30.952C130.297 30.888 130.705 30.616 131.089 30.136C131.473 29.656 131.801 29.064 132.073 28.36C132.361 27.656 132.545 26.952 132.625 26.248C132.913 26.2 133.177 26.176 133.417 26.176C134.057 26.176 134.497 26.36 134.737 26.728C134.993 27.096 135.121 27.44 135.121 27.76V30.28H137.905C137.905 30.664 137.881 31.048 137.833 31.432C137.801 31.8 137.697 32.128 137.521 32.416H135.169V39.184C135.169 39.696 135.273 40.04 135.481 40.216C135.689 40.376 135.953 40.456 136.273 40.456C136.593 40.456 136.913 40.376 137.233 40.216C137.569 40.04 137.833 39.84 138.025 39.616C138.201 39.76 138.321 39.976 138.385 40.264C138.449 40.536 138.481 40.744 138.481 40.888C138.481 41.24 138.361 41.592 138.121 41.944C137.881 42.296 137.505 42.592 136.993 42.832C136.497 43.056 135.865 43.168 135.097 43.168ZM143.786 43.168C142.666 43.168 141.794 42.824 141.17 42.136C140.546 41.448 140.234 40.52 140.234 39.352V32.752C140.234 32.48 140.13 32.288 139.922 32.176C139.714 32.064 139.426 32.008 139.058 32.008V30.952C139.266 30.776 139.698 30.592 140.354 30.4C141.026 30.192 141.778 30.088 142.61 30.088C143.234 30.088 143.642 30.16 143.834 30.304C144.042 30.448 144.146 30.8 144.146 31.36V39.424C144.146 39.904 144.226 40.272 144.386 40.528C144.546 40.784 144.826 40.912 145.226 40.912C145.562 40.912 145.882 40.808 146.186 40.6C146.506 40.392 146.77 40.152 146.978 39.88V32.752C146.978 32.48 146.858 32.288 146.618 32.176C146.378 32.064 146.05 32.008 145.634 32.008V30.952C145.858 30.776 146.298 30.592 146.954 30.4C147.61 30.192 148.386 30.088 149.282 30.088C149.906 30.088 150.33 30.16 150.554 30.304C150.778 30.448 150.89 30.8 150.89 31.36V40.192C150.89 40.576 150.986 40.896 151.178 41.152C151.386 41.408 151.674 41.552 152.042 41.584V42.256C151.786 42.56 151.378 42.792 150.818 42.952C150.274 43.096 149.746 43.168 149.234 43.168C148.706 43.168 148.242 43.032 147.842 42.76C147.458 42.472 147.202 42.064 147.074 41.536C146.29 42.624 145.194 43.168 143.786 43.168ZM153.653 43C153.477 42.824 153.341 42.632 153.245 42.424C153.149 42.216 153.101 41.976 153.101 41.704C153.565 41.704 153.893 41.608 154.085 41.416C154.293 41.208 154.397 40.864 154.397 40.384V33.448C154.397 33.032 154.285 32.736 154.061 32.56C153.837 32.368 153.421 32.272 152.813 32.272V31.192C153.197 30.968 153.653 30.776 154.181 30.616C154.709 30.44 155.229 30.304 155.741 30.208C156.253 30.096 156.653 30.04 156.941 30.04C157.309 30.04 157.573 30.168 157.733 30.424C157.909 30.68 157.997 31.232 157.997 32.08C158.173 31.744 158.429 31.416 158.765 31.096C159.117 30.76 159.509 30.488 159.941 30.28C160.373 30.072 160.821 29.968 161.285 29.968C162.037 29.968 162.573 30.16 162.893 30.544C163.213 30.928 163.373 31.424 163.373 32.032C163.373 32.72 163.197 33.28 162.845 33.712C162.493 34.144 162.005 34.36 161.381 34.36C160.837 34.36 160.405 34.208 160.085 33.904C159.765 33.584 159.605 33.224 159.605 32.824C159.605 32.568 159.629 32.368 159.677 32.224C159.421 32.288 159.173 32.376 158.933 32.488C158.693 32.584 158.453 32.744 158.213 32.968V40.168C158.213 40.536 158.269 40.832 158.381 41.056C158.493 41.28 158.709 41.448 159.029 41.56C159.365 41.656 159.861 41.704 160.517 41.704C160.517 41.976 160.485 42.216 160.421 42.424C160.357 42.632 160.237 42.824 160.061 43H153.653ZM169.435 43.216C167.643 43.216 166.211 42.648 165.139 41.512C164.083 40.376 163.555 38.792 163.555 36.76C163.555 35.368 163.819 34.168 164.347 33.16C164.875 32.136 165.587 31.352 166.483 30.808C167.395 30.264 168.427 29.992 169.579 29.992C171.019 29.992 172.171 30.416 173.035 31.264C173.915 32.096 174.355 33.272 174.355 34.792C174.355 35.4 174.251 35.936 174.043 36.4C173.851 36.848 173.443 37.072 172.819 37.072H167.635C167.683 38.336 167.971 39.232 168.499 39.76C169.043 40.288 169.747 40.552 170.611 40.552C171.155 40.552 171.659 40.472 172.123 40.312C172.587 40.136 173.019 39.896 173.419 39.592C173.563 39.72 173.675 39.92 173.755 40.192C173.851 40.448 173.899 40.664 173.899 40.84C173.899 41.096 173.715 41.416 173.347 41.8C172.995 42.168 172.483 42.496 171.811 42.784C171.155 43.072 170.363 43.216 169.435 43.216ZM167.635 35.248H170.059C170.331 35.248 170.499 35.144 170.563 34.936C170.643 34.728 170.683 34.472 170.683 34.168C170.683 33.144 170.555 32.472 170.299 32.152C170.059 31.816 169.771 31.648 169.435 31.648C169.163 31.648 168.891 31.752 168.619 31.96C168.347 32.168 168.123 32.536 167.947 33.064C167.771 33.576 167.667 34.304 167.635 35.248Z" fill="#EBEBEB"/>
<g clip-path="url(#clip0_6003_6957)">
<path d="M31.4725 22.9032H17.9645C17.0737 22.9032 16.3516 22.181 16.3516 21.2903V17.3589C16.3516 16.8234 16.6173 16.323 17.0607 16.023L19.779 14.1842V11.6129C19.779 10.7222 20.5012 10 21.3919 10H28.0451C28.9358 10 29.658 10.7222 29.658 11.6129V14.1841L32.3763 16.0229C32.8197 16.3229 33.0854 16.8234 33.0854 17.3588V21.2902C33.0854 22.181 32.3633 22.9032 31.4725 22.9032Z" fill="#EBEBEB"/>
<path d="M53.5033 56.7742H52.3389V49.1129C52.3389 48.6675 51.9778 48.3065 51.5324 48.3065H38.1756C37.7302 48.3065 37.3691 48.6675 37.3691 49.1129V59.1936C37.3691 59.6389 37.7302 60 38.1756 60H53.5486C54.4653 60 55.2028 59.2362 55.1597 58.3099C55.1192 57.4421 54.3721 56.7742 53.5033 56.7742ZM45.2824 54.1532H43.2663C42.3752 54.1532 41.6534 53.4315 41.6534 52.5403C41.6534 51.6492 42.3752 50.9274 43.2663 50.9274H45.2824C46.1736 50.9274 46.8953 51.6492 46.8953 52.5403C46.8953 53.4315 46.1736 54.1532 45.2824 54.1532Z" fill="#EBEBEB"/>
<path d="M37.3688 44.2742C37.3688 44.7198 37.7296 45.0807 38.1752 45.0807H51.5321C51.9776 45.0807 52.3385 44.7198 52.3385 44.2742V36.6129H53.0996C53.9686 36.6129 54.7155 35.9446 54.7559 35.0776C54.7992 34.1512 54.0613 33.3871 53.145 33.3871H30.7909C31.1023 32.5092 31.0684 31.8693 31.0684 31.2702H36.2095C37.1002 31.2702 37.8224 30.548 37.8224 29.6573C37.8224 28.7665 37.1002 28.0444 36.2095 28.0444C35.4368 28.0444 20.6124 28.0444 19.9796 28.0444C19.0889 28.0444 18.3667 28.7665 18.3667 29.6573C18.3667 31.8766 18.2973 32.4091 18.6442 33.3871H11.6581C10.7891 33.3871 10.0421 34.0555 10.0018 34.9224C9.95847 35.8488 10.6964 36.6129 11.6127 36.6129H12.4192V58.3871C12.4192 59.2782 13.1409 60 14.0321 60H33.3365C33.7821 60 34.1429 59.6391 34.1429 59.1936V40.2873C34.1429 39.4184 34.8113 38.6714 35.6782 38.6311C36.6046 38.5877 37.3688 39.3256 37.3688 40.242V44.2742ZM43.2659 39.2339H45.2821C46.1732 39.2339 46.895 39.9557 46.895 40.8468C46.895 41.7379 46.1732 42.4597 45.2821 42.4597H43.2659C42.3748 42.4597 41.653 41.7379 41.653 40.8468C41.653 39.9557 42.3748 39.2339 43.2659 39.2339ZM20.0804 39.0323H27.3385C28.2296 39.0323 28.9514 39.7541 28.9514 40.6452C28.9514 41.5363 28.2296 42.2581 27.3385 42.2581H20.0804C19.1893 42.2581 18.4675 41.5363 18.4675 40.6452C18.4675 39.7541 19.1893 39.0323 20.0804 39.0323ZM30.5643 54.5565C30.5643 55.4476 29.8425 56.1694 28.9514 56.1694H18.4675C17.5764 56.1694 16.8546 55.4476 16.8546 54.5565V47.0968C16.8546 46.2057 17.5764 45.4839 18.4675 45.4839H28.9514C29.8425 45.4839 30.5643 46.2057 30.5643 47.0968V54.5565Z" fill="#EBEBEB"/>
<path d="M56.9647 59.1472C56.3511 57.97 57.3035 56.6505 58.5454 56.7823C59.4154 56.8656 60.0778 57.6483 59.992 58.5454C59.8402 60.115 57.7307 60.5563 56.9647 59.1472Z" fill="#EBEBEB"/>
</g>
<defs>
<clipPath id="clip0_6003_6957">
<rect width="50" height="50" fill="white" transform="translate(10 10)"/>
</clipPath>
</defs>
</svg>
