<svg width="181" height="70" viewBox="0 0 181 70" fill="none" xmlns="http://www.w3.org/2000/svg">
<g clip-path="url(#clip0_4302_484)">
<path d="M31.4716 22.9032H17.9635C17.0728 22.9032 16.3506 22.181 16.3506 21.2903V17.3589C16.3506 16.8234 16.6163 16.323 17.0598 16.023L19.778 14.1842V11.6129C19.778 10.7222 20.5002 10 21.3909 10H28.0441C28.9349 10 29.657 10.7222 29.657 11.6129V14.1841L32.3753 16.0229C32.8187 16.3229 33.0845 16.8234 33.0845 17.3588V21.2902C33.0845 22.181 32.3623 22.9032 31.4716 22.9032Z" fill="#323232"/>
<path d="M53.5033 56.7742H52.3389V49.1129C52.3389 48.6675 51.9778 48.3064 51.5324 48.3064H38.1756C37.7302 48.3064 37.3691 48.6675 37.3691 49.1129V59.1935C37.3691 59.6389 37.7302 60 38.1756 60H53.5486C54.4653 60 55.2028 59.2362 55.1597 58.3099C55.1192 57.4421 54.3721 56.7742 53.5033 56.7742ZM45.2824 54.1532H43.2663C42.3752 54.1532 41.6534 53.4314 41.6534 52.5403C41.6534 51.6492 42.3752 50.9274 43.2663 50.9274H45.2824C46.1736 50.9274 46.8953 51.6492 46.8953 52.5403C46.8953 53.4314 46.1736 54.1532 45.2824 54.1532Z" fill="#323232"/>
<path d="M37.3688 44.2742C37.3688 44.7198 37.7296 45.0806 38.1752 45.0806H51.5321C51.9776 45.0806 52.3385 44.7198 52.3385 44.2742V36.6129H53.0996C53.9686 36.6129 54.7155 35.9446 54.7559 35.0776C54.7992 34.1512 54.0613 33.3871 53.145 33.3871H30.7909C31.1023 32.5092 31.0683 31.8693 31.0683 31.2702H36.2095C37.1002 31.2702 37.8224 30.548 37.8224 29.6573C37.8224 28.7665 37.1002 28.0444 36.2095 28.0444C35.4368 28.0444 20.6124 28.0444 19.9796 28.0444C19.0889 28.0444 18.3667 28.7665 18.3667 29.6573C18.3667 31.8766 18.2973 32.4091 18.6442 33.3871H11.6581C10.7891 33.3871 10.0421 34.0554 10.0018 34.9224C9.95847 35.8488 10.6964 36.6129 11.6127 36.6129H12.4192V58.3871C12.4192 59.2782 13.1409 60 14.0321 60H33.3365C33.7821 60 34.1429 59.6391 34.1429 59.1936V40.2873C34.1429 39.4184 34.8113 38.6714 35.6782 38.6311C36.6046 38.5877 37.3688 39.3256 37.3688 40.2419V44.2742ZM43.2659 39.2339H45.2821C46.1732 39.2339 46.895 39.9556 46.895 40.8468C46.895 41.7379 46.1732 42.4597 45.2821 42.4597H43.2659C42.3748 42.4597 41.653 41.7379 41.653 40.8468C41.653 39.9556 42.3748 39.2339 43.2659 39.2339ZM20.0804 39.0323H27.3385C28.2296 39.0323 28.9514 39.754 28.9514 40.6452C28.9514 41.5363 28.2296 42.2581 27.3385 42.2581H20.0804C19.1893 42.2581 18.4675 41.5363 18.4675 40.6452C18.4675 39.754 19.1893 39.0323 20.0804 39.0323ZM30.5643 54.5565C30.5643 55.4476 29.8425 56.1694 28.9514 56.1694H18.4675C17.5764 56.1694 16.8546 55.4476 16.8546 54.5565V47.0968C16.8546 46.2056 17.5764 45.4839 18.4675 45.4839H28.9514C29.8425 45.4839 30.5643 46.2056 30.5643 47.0968V54.5565Z" fill="#323232"/>
<path d="M56.9647 59.1472C56.3511 57.97 57.3035 56.6505 58.5454 56.7823C59.4154 56.8656 60.0778 57.6483 59.992 58.5454C59.8402 60.115 57.7307 60.5563 56.9647 59.1472Z" fill="#323232"/>
</g>
<path d="M72.772 26.12C72.484 26.12 72.192 26.088 71.896 26.024C71.608 25.96 71.34 25.868 71.092 25.748C70.852 25.628 70.656 25.48 70.504 25.304C70.352 25.12 70.276 24.912 70.276 24.68C70.276 24.4 70.356 24.176 70.516 24.008C70.676 23.832 70.88 23.744 71.128 23.744C71.352 23.744 71.54 23.816 71.692 23.96C71.852 24.104 71.932 24.292 71.932 24.524C71.932 24.628 71.916 24.72 71.884 24.8C71.852 24.872 71.804 24.952 71.74 25.04C71.812 25.112 71.94 25.164 72.124 25.196C72.308 25.228 72.488 25.244 72.664 25.244C72.944 25.244 73.16 25.192 73.312 25.088C73.464 24.984 73.54 24.856 73.54 24.704C73.54 24.464 73.412 24.26 73.156 24.092C72.9 23.916 72.608 23.74 72.28 23.564C71.984 23.404 71.688 23.236 71.392 23.06C71.104 22.876 70.86 22.648 70.66 22.376C70.468 22.104 70.372 21.76 70.372 21.344C70.372 20.816 70.592 20.38 71.032 20.036C71.472 19.692 72.096 19.52 72.904 19.52C73.464 19.52 73.912 19.592 74.248 19.736C74.584 19.872 74.828 20.048 74.98 20.264C75.132 20.472 75.208 20.692 75.208 20.924C75.208 21.172 75.128 21.372 74.968 21.524C74.816 21.668 74.628 21.74 74.404 21.74C74.204 21.74 74.028 21.68 73.876 21.56C73.724 21.432 73.648 21.268 73.648 21.068C73.648 20.972 73.664 20.868 73.696 20.756C73.728 20.644 73.772 20.552 73.828 20.48C73.74 20.408 73.636 20.36 73.516 20.336C73.404 20.304 73.268 20.288 73.108 20.288C72.844 20.288 72.64 20.352 72.496 20.48C72.36 20.6 72.292 20.748 72.292 20.924C72.292 21.196 72.42 21.42 72.676 21.596C72.94 21.772 73.232 21.944 73.552 22.112C73.848 22.264 74.136 22.428 74.416 22.604C74.704 22.78 74.944 23 75.136 23.264C75.328 23.528 75.424 23.868 75.424 24.284C75.424 24.732 75.296 25.092 75.04 25.364C74.784 25.628 74.452 25.82 74.044 25.94C73.644 26.06 73.22 26.12 72.772 26.12ZM79.4033 18.644C79.0593 18.644 78.7833 18.544 78.5753 18.344C78.3753 18.136 78.2753 17.86 78.2753 17.516C78.2753 17.18 78.3793 16.908 78.5873 16.7C78.8033 16.492 79.0833 16.388 79.4273 16.388C79.7793 16.388 80.0553 16.492 80.2553 16.7C80.4633 16.908 80.5673 17.18 80.5673 17.516C80.5673 17.86 80.4593 18.136 80.2433 18.344C80.0353 18.544 79.7553 18.644 79.4033 18.644ZM78.0593 26C77.9713 25.912 77.9033 25.816 77.8553 25.712C77.8073 25.608 77.7833 25.488 77.7833 25.352C78.0153 25.352 78.1873 25.304 78.2993 25.208C78.4113 25.104 78.4673 24.932 78.4673 24.692V21.212C78.4673 21.004 78.4153 20.848 78.3113 20.744C78.2153 20.64 78.0033 20.588 77.6753 20.588V20.06C77.7953 19.988 77.9793 19.908 78.2273 19.82C78.4753 19.724 78.7433 19.644 79.0313 19.58C79.3273 19.516 79.5913 19.484 79.8233 19.484C80.0073 19.484 80.1393 19.528 80.2193 19.616C80.2993 19.696 80.3393 19.836 80.3393 20.036V24.704C80.3393 24.944 80.3993 25.112 80.5193 25.208C80.6393 25.304 80.8153 25.352 81.0473 25.352C81.0473 25.488 81.0233 25.608 80.9753 25.712C80.9273 25.816 80.8593 25.912 80.7713 26H78.0593ZM85.6758 26.084C85.3398 26.084 85.0318 26.024 84.7518 25.904C84.4718 25.776 84.2438 25.56 84.0678 25.256C83.8998 24.952 83.8158 24.536 83.8158 24.008V20.708H83.0598V19.976C83.2758 19.944 83.4798 19.808 83.6718 19.568C83.8638 19.328 84.0278 19.032 84.1638 18.68C84.3078 18.328 84.3998 17.976 84.4398 17.624C84.5838 17.6 84.7158 17.588 84.8358 17.588C85.1558 17.588 85.3758 17.68 85.4958 17.864C85.6238 18.048 85.6878 18.22 85.6878 18.38V19.64H87.0798C87.0798 19.832 87.0678 20.024 87.0438 20.216C87.0278 20.4 86.9758 20.564 86.8878 20.708H85.7118V24.092C85.7118 24.348 85.7638 24.52 85.8678 24.608C85.9718 24.688 86.1038 24.728 86.2638 24.728C86.4238 24.728 86.5838 24.688 86.7438 24.608C86.9118 24.52 87.0438 24.42 87.1398 24.308C87.2278 24.38 87.2878 24.488 87.3198 24.632C87.3518 24.768 87.3678 24.872 87.3678 24.944C87.3678 25.12 87.3078 25.296 87.1878 25.472C87.0678 25.648 86.8798 25.796 86.6238 25.916C86.3758 26.028 86.0598 26.084 85.6758 26.084ZM92.3755 26.108C91.4795 26.108 90.7635 25.824 90.2275 25.256C89.6995 24.688 89.4355 23.896 89.4355 22.88C89.4355 22.184 89.5675 21.584 89.8315 21.08C90.0955 20.568 90.4515 20.176 90.8995 19.904C91.3555 19.632 91.8715 19.496 92.4475 19.496C93.1675 19.496 93.7435 19.708 94.1755 20.132C94.6155 20.548 94.8355 21.136 94.8355 21.896C94.8355 22.2 94.7835 22.468 94.6795 22.7C94.5835 22.924 94.3795 23.036 94.0675 23.036H91.4755C91.4995 23.668 91.6435 24.116 91.9075 24.38C92.1795 24.644 92.5315 24.776 92.9635 24.776C93.2355 24.776 93.4875 24.736 93.7195 24.656C93.9515 24.568 94.1675 24.448 94.3675 24.296C94.4395 24.36 94.4955 24.46 94.5355 24.596C94.5835 24.724 94.6075 24.832 94.6075 24.92C94.6075 25.048 94.5155 25.208 94.3315 25.4C94.1555 25.584 93.8995 25.748 93.5635 25.892C93.2355 26.036 92.8395 26.108 92.3755 26.108ZM91.4755 22.124H92.6875C92.8235 22.124 92.9075 22.072 92.9395 21.968C92.9795 21.864 92.9995 21.736 92.9995 21.584C92.9995 21.072 92.9355 20.736 92.8075 20.576C92.6875 20.408 92.5435 20.324 92.3755 20.324C92.2395 20.324 92.1035 20.376 91.9675 20.48C91.8315 20.584 91.7195 20.768 91.6315 21.032C91.5435 21.288 91.4915 21.652 91.4755 22.124ZM97.4056 26C97.3176 25.912 97.2456 25.784 97.1896 25.616C97.1416 25.448 97.1176 25.304 97.1176 25.184C97.5096 25.184 97.8256 25.112 98.0656 24.968C98.3136 24.816 98.4376 24.532 98.4376 24.116V19.772C98.4376 19.516 98.2576 19.388 97.8976 19.388C97.7856 19.388 97.6576 19.404 97.5136 19.436C97.3776 19.46 97.2536 19.496 97.1416 19.544L96.8176 18.944L98.6896 17.852C98.9616 17.692 99.1736 17.592 99.3256 17.552C99.4776 17.504 99.6056 17.48 99.7096 17.48C99.9336 17.48 100.082 17.556 100.154 17.708C100.234 17.852 100.274 17.992 100.274 18.128V24.116C100.274 24.54 100.39 24.824 100.622 24.968C100.862 25.112 101.19 25.184 101.606 25.184C101.606 25.304 101.582 25.448 101.534 25.616C101.486 25.784 101.418 25.912 101.33 26H97.4056ZM107.007 26.12C106.311 26.12 105.707 25.98 105.195 25.7C104.683 25.42 104.287 24.972 104.007 24.356C103.727 23.732 103.587 22.912 103.587 21.896C103.587 20.816 103.731 19.956 104.019 19.316C104.307 18.668 104.707 18.204 105.219 17.924C105.739 17.644 106.343 17.504 107.031 17.504C107.727 17.504 108.331 17.648 108.843 17.936C109.363 18.216 109.763 18.68 110.043 19.328C110.323 19.968 110.463 20.828 110.463 21.908C110.463 22.932 110.319 23.756 110.031 24.38C109.743 24.996 109.339 25.44 108.819 25.712C108.307 25.984 107.703 26.12 107.007 26.12ZM107.007 25.28C107.183 25.28 107.351 25.236 107.511 25.148C107.671 25.06 107.811 24.9 107.931 24.668C108.051 24.428 108.143 24.084 108.207 23.636C108.279 23.188 108.315 22.604 108.315 21.884C108.315 21.116 108.279 20.496 108.207 20.024C108.143 19.552 108.051 19.196 107.931 18.956C107.811 18.716 107.675 18.556 107.523 18.476C107.371 18.388 107.207 18.344 107.031 18.344C106.855 18.344 106.687 18.388 106.527 18.476C106.375 18.556 106.239 18.72 106.119 18.968C105.999 19.208 105.903 19.564 105.831 20.036C105.759 20.508 105.723 21.136 105.723 21.92C105.723 22.632 105.755 23.208 105.819 23.648C105.891 24.088 105.987 24.428 106.107 24.668C106.227 24.9 106.363 25.06 106.515 25.148C106.675 25.236 106.839 25.28 107.007 25.28ZM116.764 26.12C116.068 26.12 115.464 25.98 114.952 25.7C114.44 25.42 114.044 24.972 113.764 24.356C113.484 23.732 113.344 22.912 113.344 21.896C113.344 20.816 113.488 19.956 113.776 19.316C114.064 18.668 114.464 18.204 114.976 17.924C115.496 17.644 116.1 17.504 116.788 17.504C117.484 17.504 118.088 17.648 118.6 17.936C119.12 18.216 119.52 18.68 119.8 19.328C120.08 19.968 120.22 20.828 120.22 21.908C120.22 22.932 120.076 23.756 119.788 24.38C119.5 24.996 119.096 25.44 118.576 25.712C118.064 25.984 117.46 26.12 116.764 26.12ZM116.764 25.28C116.94 25.28 117.108 25.236 117.268 25.148C117.428 25.06 117.568 24.9 117.688 24.668C117.808 24.428 117.9 24.084 117.964 23.636C118.036 23.188 118.072 22.604 118.072 21.884C118.072 21.116 118.036 20.496 117.964 20.024C117.9 19.552 117.808 19.196 117.688 18.956C117.568 18.716 117.432 18.556 117.28 18.476C117.128 18.388 116.964 18.344 116.788 18.344C116.612 18.344 116.444 18.388 116.284 18.476C116.132 18.556 115.996 18.72 115.876 18.968C115.756 19.208 115.66 19.564 115.588 20.036C115.516 20.508 115.48 21.136 115.48 21.92C115.48 22.632 115.512 23.208 115.576 23.648C115.648 24.088 115.744 24.428 115.864 24.668C115.984 24.9 116.12 25.06 116.272 25.148C116.432 25.236 116.596 25.28 116.764 25.28ZM71.176 50C70.808 49.6 70.624 49.088 70.624 48.464C71.28 48.464 71.712 48.376 71.92 48.2C72.144 48.024 72.256 47.712 72.256 47.264V35.984C72.256 35.536 72.128 35.224 71.872 35.048C71.616 34.872 71.232 34.784 70.72 34.784C70.72 34.192 70.904 33.688 71.272 33.272H80.44C81.064 33 81.672 32.864 82.264 32.864C82.408 33.12 82.536 33.488 82.648 33.968C82.776 34.432 82.872 34.904 82.936 35.384C83.016 35.848 83.056 36.216 83.056 36.488C82.848 36.68 82.536 36.864 82.12 37.04C81.704 37.216 81.336 37.336 81.016 37.4C80.856 36.872 80.56 36.392 80.128 35.96C79.712 35.528 79.104 35.312 78.304 35.312H76.192V40.88H78.16C78.624 40.88 78.944 40.728 79.12 40.424C79.312 40.12 79.408 39.648 79.408 39.008C79.76 39.008 80.128 39.056 80.512 39.152C80.896 39.232 81.216 39.36 81.472 39.536V43.976C81.216 44.136 80.896 44.264 80.512 44.36C80.144 44.456 79.776 44.504 79.408 44.504C79.408 43.848 79.312 43.384 79.12 43.112C78.944 42.824 78.632 42.68 78.184 42.68H76.192V46.952C76.192 47.4 76.288 47.752 76.48 48.008C76.672 48.248 77.104 48.368 77.776 48.368H79.696C79.696 48.656 79.664 48.952 79.6 49.256C79.552 49.56 79.44 49.808 79.264 50H71.176ZM87.9574 50.168C86.8374 50.168 85.9654 49.824 85.3414 49.136C84.7174 48.448 84.4054 47.52 84.4054 46.352V39.752C84.4054 39.48 84.3014 39.288 84.0934 39.176C83.8854 39.064 83.5974 39.008 83.2294 39.008V37.952C83.4374 37.776 83.8694 37.592 84.5254 37.4C85.1974 37.192 85.9494 37.088 86.7814 37.088C87.4054 37.088 87.8134 37.16 88.0054 37.304C88.2134 37.448 88.3174 37.8 88.3174 38.36V46.424C88.3174 46.904 88.3974 47.272 88.5574 47.528C88.7174 47.784 88.9974 47.912 89.3974 47.912C89.7334 47.912 90.0534 47.808 90.3574 47.6C90.6774 47.392 90.9414 47.152 91.1494 46.88V39.752C91.1494 39.48 91.0294 39.288 90.7894 39.176C90.5494 39.064 90.2214 39.008 89.8054 39.008V37.952C90.0294 37.776 90.4694 37.592 91.1254 37.4C91.7814 37.192 92.5574 37.088 93.4534 37.088C94.0774 37.088 94.5014 37.16 94.7254 37.304C94.9494 37.448 95.0614 37.8 95.0614 38.36V47.192C95.0614 47.576 95.1574 47.896 95.3494 48.152C95.5574 48.408 95.8454 48.552 96.2134 48.584V49.256C95.9574 49.56 95.5494 49.792 94.9894 49.952C94.4454 50.096 93.9174 50.168 93.4054 50.168C92.8774 50.168 92.4134 50.032 92.0134 49.76C91.6294 49.472 91.3734 49.064 91.2454 48.536C90.4614 49.624 89.3654 50.168 87.9574 50.168ZM97.825 50C97.649 49.824 97.513 49.632 97.417 49.424C97.321 49.216 97.273 48.976 97.273 48.704C97.737 48.704 98.065 48.608 98.257 48.416C98.465 48.208 98.569 47.864 98.569 47.384V40.448C98.569 40.032 98.457 39.736 98.233 39.56C98.009 39.368 97.593 39.272 96.985 39.272V38.192C97.369 37.968 97.825 37.776 98.353 37.616C98.881 37.44 99.401 37.304 99.913 37.208C100.425 37.096 100.825 37.04 101.113 37.04C101.481 37.04 101.745 37.168 101.905 37.424C102.081 37.68 102.169 38.232 102.169 39.08C102.345 38.744 102.601 38.416 102.937 38.096C103.289 37.76 103.681 37.488 104.113 37.28C104.545 37.072 104.993 36.968 105.457 36.968C106.209 36.968 106.745 37.16 107.065 37.544C107.385 37.928 107.545 38.424 107.545 39.032C107.545 39.72 107.369 40.28 107.017 40.712C106.665 41.144 106.177 41.36 105.553 41.36C105.009 41.36 104.577 41.208 104.257 40.904C103.937 40.584 103.777 40.224 103.777 39.824C103.777 39.568 103.801 39.368 103.849 39.224C103.593 39.288 103.345 39.376 103.105 39.488C102.865 39.584 102.625 39.744 102.385 39.968V47.168C102.385 47.536 102.441 47.832 102.553 48.056C102.665 48.28 102.881 48.448 103.201 48.56C103.537 48.656 104.033 48.704 104.689 48.704C104.689 48.976 104.657 49.216 104.593 49.424C104.529 49.632 104.409 49.824 104.233 50H97.825ZM108.984 50C108.808 49.824 108.664 49.632 108.552 49.424C108.456 49.216 108.408 48.984 108.408 48.728C108.888 48.728 109.232 48.624 109.44 48.416C109.648 48.208 109.752 47.872 109.752 47.408V40.4C109.752 39.984 109.632 39.68 109.392 39.488C109.168 39.296 108.752 39.2 108.144 39.2V38.12C108.512 37.912 108.976 37.72 109.536 37.544C110.112 37.368 110.664 37.232 111.192 37.136C111.736 37.024 112.152 36.968 112.44 36.968C112.776 36.968 113.048 37.072 113.256 37.28C113.48 37.488 113.608 37.936 113.64 38.624C114.04 38.128 114.544 37.728 115.152 37.424C115.776 37.12 116.496 36.968 117.312 36.968C118.432 36.968 119.272 37.256 119.832 37.832C120.408 38.392 120.696 39.352 120.696 40.712V47.264C120.696 48.048 121.08 48.512 121.848 48.656L121.872 49.352C121.712 49.512 121.456 49.656 121.104 49.784C120.752 49.896 120.368 49.984 119.952 50.048C119.552 50.112 119.176 50.144 118.824 50.144C118.136 50.144 117.624 50.016 117.288 49.76C116.968 49.504 116.808 49.096 116.808 48.536V41.048C116.808 40.392 116.664 39.936 116.376 39.68C116.088 39.424 115.736 39.296 115.32 39.296C114.664 39.296 114.112 39.56 113.664 40.088V47.408C113.664 47.872 113.76 48.208 113.952 48.416C114.16 48.624 114.504 48.728 114.984 48.728C114.984 49.208 114.8 49.632 114.432 50H108.984ZM126.152 35.288C125.464 35.288 124.912 35.088 124.496 34.688C124.096 34.272 123.896 33.72 123.896 33.032C123.896 32.36 124.104 31.816 124.52 31.4C124.952 30.984 125.512 30.776 126.2 30.776C126.904 30.776 127.456 30.984 127.856 31.4C128.272 31.816 128.48 32.36 128.48 33.032C128.48 33.72 128.264 34.272 127.832 34.688C127.416 35.088 126.856 35.288 126.152 35.288ZM123.464 50C123.288 49.824 123.152 49.632 123.056 49.424C122.96 49.216 122.912 48.976 122.912 48.704C123.376 48.704 123.72 48.608 123.944 48.416C124.168 48.208 124.28 47.864 124.28 47.384V40.424C124.28 40.008 124.176 39.696 123.968 39.488C123.776 39.28 123.352 39.176 122.696 39.176V38.12C122.936 37.976 123.304 37.816 123.8 37.64C124.296 37.448 124.832 37.288 125.408 37.16C126 37.032 126.528 36.968 126.992 36.968C127.36 36.968 127.624 37.056 127.784 37.232C127.944 37.392 128.024 37.672 128.024 38.072V47.408C128.024 47.888 128.144 48.224 128.384 48.416C128.624 48.608 128.976 48.704 129.44 48.704C129.44 48.976 129.392 49.216 129.296 49.424C129.2 49.632 129.064 49.824 128.888 50H123.464ZM135.097 50.168C134.425 50.168 133.809 50.048 133.249 49.808C132.689 49.552 132.233 49.12 131.881 48.512C131.545 47.904 131.377 47.072 131.377 46.016V39.416H129.865V37.952C130.297 37.888 130.705 37.616 131.089 37.136C131.473 36.656 131.801 36.064 132.073 35.36C132.361 34.656 132.545 33.952 132.625 33.248C132.913 33.2 133.177 33.176 133.417 33.176C134.057 33.176 134.497 33.36 134.737 33.728C134.993 34.096 135.121 34.44 135.121 34.76V37.28H137.905C137.905 37.664 137.881 38.048 137.833 38.432C137.801 38.8 137.697 39.128 137.521 39.416H135.169V46.184C135.169 46.696 135.273 47.04 135.481 47.216C135.689 47.376 135.953 47.456 136.273 47.456C136.593 47.456 136.913 47.376 137.233 47.216C137.569 47.04 137.833 46.84 138.025 46.616C138.201 46.76 138.321 46.976 138.385 47.264C138.449 47.536 138.481 47.744 138.481 47.888C138.481 48.24 138.361 48.592 138.121 48.944C137.881 49.296 137.505 49.592 136.993 49.832C136.497 50.056 135.865 50.168 135.097 50.168ZM143.786 50.168C142.666 50.168 141.794 49.824 141.17 49.136C140.546 48.448 140.234 47.52 140.234 46.352V39.752C140.234 39.48 140.13 39.288 139.922 39.176C139.714 39.064 139.426 39.008 139.058 39.008V37.952C139.266 37.776 139.698 37.592 140.354 37.4C141.026 37.192 141.778 37.088 142.61 37.088C143.234 37.088 143.642 37.16 143.834 37.304C144.042 37.448 144.146 37.8 144.146 38.36V46.424C144.146 46.904 144.226 47.272 144.386 47.528C144.546 47.784 144.826 47.912 145.226 47.912C145.562 47.912 145.882 47.808 146.186 47.6C146.506 47.392 146.77 47.152 146.978 46.88V39.752C146.978 39.48 146.858 39.288 146.618 39.176C146.378 39.064 146.05 39.008 145.634 39.008V37.952C145.858 37.776 146.298 37.592 146.954 37.4C147.61 37.192 148.386 37.088 149.282 37.088C149.906 37.088 150.33 37.16 150.554 37.304C150.778 37.448 150.89 37.8 150.89 38.36V47.192C150.89 47.576 150.986 47.896 151.178 48.152C151.386 48.408 151.674 48.552 152.042 48.584V49.256C151.786 49.56 151.378 49.792 150.818 49.952C150.274 50.096 149.746 50.168 149.234 50.168C148.706 50.168 148.242 50.032 147.842 49.76C147.458 49.472 147.202 49.064 147.074 48.536C146.29 49.624 145.194 50.168 143.786 50.168ZM153.653 50C153.477 49.824 153.341 49.632 153.245 49.424C153.149 49.216 153.101 48.976 153.101 48.704C153.565 48.704 153.893 48.608 154.085 48.416C154.293 48.208 154.397 47.864 154.397 47.384V40.448C154.397 40.032 154.285 39.736 154.061 39.56C153.837 39.368 153.421 39.272 152.813 39.272V38.192C153.197 37.968 153.653 37.776 154.181 37.616C154.709 37.44 155.229 37.304 155.741 37.208C156.253 37.096 156.653 37.04 156.941 37.04C157.309 37.04 157.573 37.168 157.733 37.424C157.909 37.68 157.997 38.232 157.997 39.08C158.173 38.744 158.429 38.416 158.765 38.096C159.117 37.76 159.509 37.488 159.941 37.28C160.373 37.072 160.821 36.968 161.285 36.968C162.037 36.968 162.573 37.16 162.893 37.544C163.213 37.928 163.373 38.424 163.373 39.032C163.373 39.72 163.197 40.28 162.845 40.712C162.493 41.144 162.005 41.36 161.381 41.36C160.837 41.36 160.405 41.208 160.085 40.904C159.765 40.584 159.605 40.224 159.605 39.824C159.605 39.568 159.629 39.368 159.677 39.224C159.421 39.288 159.173 39.376 158.933 39.488C158.693 39.584 158.453 39.744 158.213 39.968V47.168C158.213 47.536 158.269 47.832 158.381 48.056C158.493 48.28 158.709 48.448 159.029 48.56C159.365 48.656 159.861 48.704 160.517 48.704C160.517 48.976 160.485 49.216 160.421 49.424C160.357 49.632 160.237 49.824 160.061 50H153.653ZM169.435 50.216C167.643 50.216 166.211 49.648 165.139 48.512C164.083 47.376 163.555 45.792 163.555 43.76C163.555 42.368 163.819 41.168 164.347 40.16C164.875 39.136 165.587 38.352 166.483 37.808C167.395 37.264 168.427 36.992 169.579 36.992C171.019 36.992 172.171 37.416 173.035 38.264C173.915 39.096 174.355 40.272 174.355 41.792C174.355 42.4 174.251 42.936 174.043 43.4C173.851 43.848 173.443 44.072 172.819 44.072H167.635C167.683 45.336 167.971 46.232 168.499 46.76C169.043 47.288 169.747 47.552 170.611 47.552C171.155 47.552 171.659 47.472 172.123 47.312C172.587 47.136 173.019 46.896 173.419 46.592C173.563 46.72 173.675 46.92 173.755 47.192C173.851 47.448 173.899 47.664 173.899 47.84C173.899 48.096 173.715 48.416 173.347 48.8C172.995 49.168 172.483 49.496 171.811 49.784C171.155 50.072 170.363 50.216 169.435 50.216ZM167.635 42.248H170.059C170.331 42.248 170.499 42.144 170.563 41.936C170.643 41.728 170.683 41.472 170.683 41.168C170.683 40.144 170.555 39.472 170.299 39.152C170.059 38.816 169.771 38.648 169.435 38.648C169.163 38.648 168.891 38.752 168.619 38.96C168.347 39.168 168.123 39.536 167.947 40.064C167.771 40.576 167.667 41.304 167.635 42.248Z" fill="#323232"/>
<defs>
<clipPath id="clip0_4302_484">
<rect width="50" height="50" fill="white" transform="translate(10 10)"/>
</clipPath>
</defs>
</svg>
