<svg width="60" height="60" viewBox="0 0 60 60" fill="currentColor" xmlns="http://www.w3.org/2000/svg" class="svg-icon">
    <path
        d="M33.186 10.916c-6.14-6.14-16.13-6.14-22.27 0A15.64 15.64 0 0 0 6.306 22.05c0 4.206 1.638 8.16 4.612 11.135a15.7 15.7 0 0 0 11.134 4.604c4.032 0 8.066-1.535 11.135-4.604a15.64 15.64 0 0 0 4.612-11.135c0-4.206-1.638-8.16-4.612-11.134m-1.487 20.782c-5.32 5.32-13.976 5.32-19.295 0a13.56 13.56 0 0 1-3.996-9.648c0-3.644 1.419-7.07 3.996-9.647a13.6 13.6 0 0 1 9.647-3.99c3.494 0 6.988 1.33 9.648 3.99a13.55 13.55 0 0 1 3.996 9.647c0 3.644-1.42 7.07-3.996 9.648" />
    <path
        d="M22.051 9.598a1.052 1.052 0 0 0 0 2.103c5.707 0 10.35 4.642 10.35 10.35a1.052 1.052 0 0 0 2.103 0c0-6.867-5.586-12.453-12.453-12.453" />
    <path
        d="M57.921 47.872 41.843 31.793a21.96 21.96 0 0 0 2.26-9.744c0-5.89-2.294-11.427-6.46-15.592A21.9 21.9 0 0 0 22.053 0 21.9 21.9 0 0 0 6.46 6.458 21.9 21.9 0 0 0 .002 22.05c0 5.89 2.294 11.427 6.458 15.592A21.9 21.9 0 0 0 22.052 44.1c3.436 0 6.75-.782 9.744-2.258l16.077 16.077A7.06 7.06 0 0 0 52.897 60a7.06 7.06 0 0 0 5.024-2.081 7.113 7.113 0 0 0 0-10.047M9.248 34.854A18 18 0 0 1 3.945 22.05 18 18 0 0 1 9.248 9.246a17.99 17.99 0 0 1 12.804-5.303c4.837 0 9.384 1.883 12.804 5.303a18 18 0 0 1 5.303 12.804c0 4.837-1.883 9.384-5.303 12.804a18 18 0 0 1-12.804 5.303 17.99 17.99 0 0 1-12.804-5.303M55.133 55.13a3.14 3.14 0 0 1-2.236.926 3.14 3.14 0 0 1-2.236-.926L35.25 39.719a22.4 22.4 0 0 0 4.472-4.472L55.133 50.66a3.165 3.165 0 0 1 0 4.471" />
</svg>