<svg width="70" height="70" viewBox="0 0 70 70" fill="currentColor" xmlns="http://www.w3.org/2000/svg" class="svg-icon">
    <path
        d="M70 51.201V36.025H16.27V16.338h8.75v-8.75h28.574v15.45H30.383l-10.8 5.4 10.8 5.4h36.199v-10.8H55.645v-17.5H23.638l-9.42 9.282v21.205H0v15.176h14.219v13.262h41.426v-9.844h-2.051v7.793H16.27v-11.21zM29.531 31.085 24.1 28.369l5.432-2.716zm24.063.702H31.582v-2.324h22.012zm0-4.375H31.582v-2.324h22.012zm6.426-2.324h4.511v6.7H60.02zm-4.376 0h2.325v6.7h-2.325zM22.97 8.97v5.317h-5.181zM2.05 38.076h3.418v1.23h2.05v-1.23h2.325v3.418h2.05v-3.418h2.325v1.23h2.05v-1.23h2.325v3.418h2.05v-3.418h2.325v1.23h2.05v-1.23h2.325v3.418h2.05v-3.418h2.325v1.23h2.05v-1.23h2.325v3.418h2.05v-3.418h2.325v1.23h2.05v-1.23h2.325v3.418h2.05v-3.418h2.325v1.23h2.05v-1.23h2.325v3.418h2.05v-3.418h2.325v1.23h2.05v-1.23h2.325v3.418h2.05v-3.418h3.555v6.7H2.051zm0 11.074v-2.324h65.898v2.324z" />
    <path d="M63.3 28.37h-2.05v2.187h2.05z" />
</svg>