<svg width="56" height="57" viewBox="0 0 56 57" fill="none" xmlns="http://www.w3.org/2000/svg" class="svg-icon">
    <path
        d="M4.33105 1.2793C6.2153 0.696881 8.71552 1.05349 11.0312 2.09277L11.4922 2.30957L50.6553 21.8291C53.4528 23.2263 54.9385 25.817 54.998 28.4023C55.0571 30.9676 53.7135 33.6022 50.6562 35.123L50.6553 35.124L11.4883 54.6543C8.86888 55.9597 6.17158 56.3429 4.21973 55.6807C3.26598 55.357 2.48248 54.7845 1.92773 53.9238C1.36769 53.0548 0.998596 51.8253 1 50.1299V6.83496C0.998595 5.08349 1.38876 3.84503 1.96777 2.98633C2.5416 2.13534 3.35074 1.58235 4.33105 1.2793Z"
        stroke="currentColor" stroke-width="2" />
</svg>