<svg width="28" height="28" viewBox="0 0 28 28" fill="none" xmlns="http://www.w3.org/2000/svg">
<g clip-path="url(#clip0_6003_6645)">
<path d="M12.4432 23.7574C11.6622 24.5384 11.6622 25.8047 12.4432 26.5858C13.2243 27.3668 14.4906 27.3668 15.2716 26.5858L26.5853 15.2721C27.3664 14.491 27.3664 13.2247 26.5853 12.4437C25.8043 11.6626 24.538 11.6626 23.7569 12.4437L12.4432 23.7574Z" fill="#DC3545"/>
<path d="M15.2719 1.12998C14.4909 0.348927 13.2246 0.348927 12.4435 1.12998C11.6625 1.91102 11.6625 3.17735 12.4435 3.9584L23.7572 15.2721C24.5383 16.0532 25.8046 16.0532 26.5856 15.2721C27.3667 14.4911 27.3667 13.2247 26.5856 12.4437L15.2719 1.12998Z" fill="#DC3545"/>
</g>
<defs>
<clipPath id="clip0_6003_6645">
<rect width="28" height="28" fill="white"/>
</clipPath>
</defs>
</svg>
