<svg width="24" height="24" viewBox="0 0 24 24" fill="currentcolor" xmlns="http://www.w3.org/2000/svg" class="svg-icon">
    <path
        d="M4.483 1.107c-.375.011-.704.21-.98.485l-.46.459 4.985 5.076.724-.724a1.13 1.13 0 0 0 0-1.592l-3.22-3.22c-.312-.311-.674-.496-1.049-.484M2.511 2.581l-.528.528c-.864.864-.858 1.994-.858 2.516 0 2.16.863 5.893 6.11 11.139 5.245 5.246 8.98 6.11 11.139 6.11.521 0 1.652.006 2.516-.859l.478-.477-4.985-5.076-.523.524c-.31.31-.539.347-.761.32-.223-.025-.452-.154-.62-.284-.917-.71-2.401-1.726-4.089-3.413-1.687-1.688-2.703-3.173-3.413-4.09-.13-.168-.259-.395-.285-.617s.014-.454.324-.764l.481-.481zm15.88 12.339c-.289 0-.577.109-.795.327l-.683.684 4.986 5.076.508-.508c.276-.276.473-.608.484-.983s-.172-.737-.484-1.05l-3.22-3.219a1.12 1.12 0 0 0-.796-.327" />
</svg>