<svg xmlns="http://www.w3.org/2000/svg" width="24" height="24" fill="none" viewBox="0 0 24 24" class="svg-icon">
    <path fill="currentColor"
        d="m21.186 1.832 1.006 1.007a2.75 2.75 0 0 1 0 3.892l-2.426 2.426-4.903-4.899 2.426-2.426a2.75 2.75 0 0 1 3.892 0zM2.93 16.194 13.891 5.23l4.903 4.904L7.83 21.094c-.288.287-.65.498-1.04.61L2.315 22.98a1.031 1.031 0 0 1-1.277-1.277l1.277-4.473a2.4 2.4 0 0 1 .61-1.041zM11.727 5.45l-6.28 6.28-3.759-3.764a2.07 2.07 0 0 1 0-2.92l3.36-3.356a2.07 2.07 0 0 1 2.92 0l.852.852q-.021.02-.044.039L6.024 5.333a.69.69 0 0 0 0 .973.69.69 0 0 0 .972 0l2.753-2.753c.012-.013.025-.03.038-.043zm6.848 6.847 1.94 1.94q-.021.02-.044.039l-2.752 2.752a.69.69 0 0 0 0 .973.69.69 0 0 0 .972 0l2.753-2.753q.018-.022.038-.043l.852.856a2.07 2.07 0 0 1 0 2.92l-3.36 3.355a2.07 2.07 0 0 1-2.92 0l-3.76-3.76z" />
</svg>